<svg width="32" height="27" viewBox="0 0 32 27" fill="none" xmlns="http://www.w3.org/2000/svg">
<path fill-rule="evenodd" clip-rule="evenodd" d="M11.5994 17.305H25.6679C26.513 17.3055 27.2769 16.8098 27.6094 16.0452L31.8299 6.3544C32.1089 5.71264 32.0416 4.97588 31.6507 4.39338C31.2599 3.81088 30.5978 3.46058 29.8884 3.461H6.67549C6.26972 3.46615 5.87407 3.58632 5.53594 3.8071L4.12909 0.62298C3.96176 0.245693 3.58373 0.00131071 3.1654 0H1.05513C0.4724 0 0 0.464863 0 1.0383C0 1.61174 0.4724 2.0766 1.05513 2.0766H2.46198L8.88423 16.5159C9.67956 18.8577 9.38622 21.4253 8.08233 23.5348C8.08065 24.9436 8.94688 26.2128 10.2728 26.7442C11.5986 27.2756 13.1195 26.9632 14.1186 25.9541C15.1176 24.9451 15.3955 23.4409 14.8211 22.1504H22.4533C21.8327 23.5498 22.2174 25.184 23.3999 26.1724C24.5825 27.1609 26.2835 27.27 27.5865 26.441C28.8894 25.612 29.4864 24.0408 29.0558 22.574C28.6251 21.1072 27.2686 20.0913 25.7172 20.0738H11.7683V20.0738H11.6276C10.8506 20.0738 10.2207 19.454 10.2207 18.6894C10.2207 17.9248 10.8506 17.305 11.6276 17.305H11.5994ZM29.8884 5.5376L25.6679 15.2284H10.896L6.67549 5.5376H29.8884ZM13.0063 23.5348C13.0063 24.2994 12.3764 24.9192 11.5994 24.9192C10.8225 24.9192 10.1926 24.2994 10.1926 23.5348C10.1926 22.7702 10.8225 22.1504 11.5994 22.1504C12.3764 22.1504 13.0063 22.7702 13.0063 23.5348ZM27.0748 23.5348C27.0748 24.2994 26.4449 24.9192 25.6679 24.9192C24.8909 24.9192 24.2611 24.2994 24.2611 23.5348C24.2611 22.7702 24.8909 22.1504 25.6679 22.1504C26.4449 22.1504 27.0748 22.7702 27.0748 23.5348Z" fill="#3F3B3C"/>
</svg>
