<svg width="19" height="19" viewBox="0 0 19 19" fill="none" xmlns="http://www.w3.org/2000/svg">
<g clip-path="url(#clip0_236_186)">
<path d="M2.43443 0.00195312H16.5265C17.8653 0.00195312 18.9598 1.08588 18.9598 2.41131V16.3625C18.9598 17.6876 17.8653 18.7708 16.5265 18.7708H2.43443C1.09562 18.7708 0 17.6875 0 16.3625V2.41131C0 1.08588 1.09562 0.00195312 2.43443 0.00195312ZM13.8119 2.08652C13.3419 2.08652 12.9584 2.46762 12.9584 2.93275V4.95456C12.9584 5.41988 13.3419 5.8001 13.8119 5.8001H15.9546C16.4239 5.8001 16.8081 5.41988 16.8081 4.95456V2.93275C16.8081 2.46762 16.4239 2.08652 15.9546 2.08652H13.8119ZM16.8163 7.93904H15.1481C15.3063 8.45053 15.392 8.98993 15.392 9.55072C15.392 12.6717 12.7525 15.2031 9.4977 15.2031C6.24376 15.2031 3.60412 12.6717 3.60412 9.55072C3.60412 8.98993 3.69071 8.45053 3.84814 7.93904H2.10769V15.8684C2.10769 16.279 2.44638 16.6131 2.86077 16.6131H16.0635C16.4783 16.6131 16.8163 16.279 16.8163 15.8684V7.93904ZM9.49776 5.69349C7.39576 5.69349 5.69064 7.32825 5.69064 9.34669C5.69064 11.3631 7.39576 12.9991 9.49776 12.9991C11.6009 12.9991 13.3061 11.3631 13.3061 9.34669C13.3061 7.32819 11.6009 5.69349 9.49776 5.69349Z" fill="#3F3B3C"/>
</g>
<defs>
<clipPath id="clip0_236_186">
<rect width="18.9598" height="18.7703" fill="white"/>
</clipPath>
</defs>
</svg>
