<svg width="327" height="186" viewBox="0 0 327 186" fill="none" xmlns="http://www.w3.org/2000/svg">
<path d="M17.9963 160.678C17.0317 160.362 16.2592 159.911 15.6752 159.328C15.0911 158.745 14.7972 158.041 14.7972 157.214C14.7972 156.409 15.0987 155.698 15.7053 155.085C16.312 154.475 17.0656 154.167 17.9662 154.167C18.8554 154.167 19.6166 154.479 20.2496 155.107C20.5774 155.431 20.8374 155.882 21.0221 156.465L19.5111 157.052C19.3264 156.548 19.1569 156.225 19.0061 156.074C18.7009 155.766 18.3543 155.608 17.9624 155.608C17.578 155.608 17.2352 155.758 16.9337 156.059C16.6323 156.36 16.4815 156.744 16.4815 157.21C16.4815 157.669 16.636 158.06 16.9488 158.384C17.2728 158.696 17.7137 158.978 18.2714 159.241C19.3415 159.591 20.2345 160.121 20.958 160.844C21.7832 161.664 22.1977 162.63 22.1977 163.747C22.1977 164.865 21.7907 165.831 20.9731 166.647C20.1554 167.464 19.1531 167.87 17.9662 167.87C16.7717 167.87 15.7618 167.452 14.9366 166.614C14.2885 165.974 13.8929 165.147 13.7422 164.127L15.3662 163.541C15.4642 164.515 15.743 165.226 16.1952 165.673C16.6926 166.17 17.2841 166.418 17.9662 166.418C18.6557 166.418 19.2586 166.162 19.7711 165.651C20.2835 165.139 20.5397 164.503 20.5397 163.747C20.5397 162.991 20.2873 162.359 19.7861 161.859C19.2774 161.359 18.6783 160.964 17.9963 160.678Z" fill="white"/>
<path d="M35.1787 156.172C36.5314 157.526 37.2059 159.136 37.2059 161.001C37.2059 162.882 36.5276 164.496 35.1787 165.846C33.8259 167.197 32.1755 167.87 30.2237 167.87C28.2794 167.87 26.6289 167.197 25.2762 165.846C23.9235 164.496 23.249 162.882 23.249 161.001C23.249 159.132 23.9235 157.522 25.2762 156.172C26.6289 154.818 28.2756 154.141 30.2237 154.141C32.1755 154.144 33.8259 154.821 35.1787 156.172ZM30.2237 155.615C28.7956 155.615 27.5559 156.138 26.5121 157.184C25.4684 158.229 24.9446 159.504 24.9446 161.005C24.9446 162.521 25.4684 163.796 26.5121 164.842C27.5559 165.884 28.7956 166.407 30.2237 166.407C31.6593 166.407 32.899 165.884 33.9428 164.842C34.9865 163.8 35.5103 162.521 35.5103 161.005C35.5103 159.504 34.9865 158.229 33.9428 157.184C32.899 156.138 31.6593 155.615 30.2237 155.615Z" fill="white"/>
<path d="M40.793 163.342V167.728H39.1049V154.333H42.9484C44.0675 154.483 45.002 154.935 45.7556 155.691C46.6335 156.567 47.0706 157.613 47.0706 158.828C47.0706 160.05 46.626 161.107 45.7367 162.003C44.8475 162.898 43.7547 163.342 42.4548 163.342H40.793ZM40.793 155.8V161.871H42.4548C43.2385 161.871 43.9205 161.581 44.5046 161.002C45.0886 160.423 45.3825 159.697 45.3825 158.828C45.3825 157.967 45.0886 157.244 44.5046 156.669C43.9205 156.093 43.2347 155.804 42.4548 155.804H40.793V155.8Z" fill="white"/>
<path d="M50.3036 161.758V167.724H48.6155V154.329H50.3036V160.295H55.8163V154.329H57.5044V167.724H55.8163V161.758H50.3036Z" fill="white"/>
<path d="M61.7171 154.329V167.724H60.029V154.329H61.7171Z" fill="white"/>
<path d="M69.2985 154.329L74.1555 167.724H72.4033L70.3799 162.157H66.7324L64.6713 167.724H62.9078L67.8327 154.329H69.2985ZM69.8486 160.709L68.5599 157.154L67.2637 160.709H69.8486Z" fill="white"/>
<path d="M74.2158 156.266L74.1216 156.052C73.9106 155.848 73.8051 155.6 73.8051 155.318C73.8051 155.04 73.9182 154.792 74.1442 154.573C74.3703 154.355 74.6605 154.246 75.0071 154.246C75.35 154.246 75.6326 154.355 75.8587 154.573C76.0848 154.792 76.1978 155.04 76.1978 155.318C76.1978 155.469 76.1715 155.611 76.1225 155.747L75.2106 157.571H73.726L74.2158 156.266Z" fill="white"/>
<path d="M81.5748 160.678C80.6102 160.362 79.8377 159.911 79.2537 159.328C78.6696 158.745 78.3757 158.041 78.3757 157.214C78.3757 156.409 78.6772 155.698 79.2838 155.085C79.8905 154.475 80.6441 154.167 81.5447 154.167C82.4339 154.167 83.1951 154.479 83.8281 155.107C84.1559 155.431 84.4159 155.882 84.6006 156.465L83.0896 157.052C82.9049 156.548 82.7354 156.225 82.5847 156.074C82.2795 155.766 81.9328 155.608 81.5409 155.608C81.1566 155.608 80.8137 155.758 80.5122 156.059C80.2108 156.36 80.0601 156.744 80.0601 157.21C80.0601 157.669 80.2146 158.06 80.5273 158.384C80.8514 158.696 81.2922 158.978 81.8499 159.241C82.92 159.591 83.8131 160.121 84.5365 160.844C85.3617 161.664 85.7762 162.63 85.7762 163.747C85.7762 164.865 85.3693 165.831 84.5516 166.647C83.7339 167.464 82.7316 167.87 81.5447 167.87C80.3502 167.87 79.3404 167.452 78.5152 166.614C77.867 165.974 77.4714 165.147 77.3207 164.127L78.9447 163.541C79.0427 164.515 79.3215 165.226 79.7737 165.673C80.2711 166.17 80.8627 166.418 81.5447 166.418C82.2342 166.418 82.8371 166.162 83.3496 165.651C83.862 165.139 84.1183 164.503 84.1183 163.747C84.1183 162.991 83.8658 162.359 83.3647 161.859C82.856 161.359 82.2568 160.964 81.5748 160.678Z" fill="white"/>
<path d="M94.1752 154.329L101.821 165.034V154.329H103.509V167.724H101.643L94.194 157.289V167.724H92.506V154.329H94.1752Z" fill="white"/>
<path d="M111.041 154.329L115.898 167.724H114.146L112.123 162.157H108.475L106.414 167.724H104.65L109.575 154.329H111.041ZM111.591 160.709L110.303 157.154L109.006 160.709H111.591Z" fill="white"/>
<path d="M119.915 155.792V167.727H118.238V155.792H115.031V154.329H123.118V155.792H119.915Z" fill="white"/>
<path d="M131.958 154.329H133.646V163.808C133.503 164.857 133.05 165.76 132.293 166.516C131.415 167.396 130.334 167.836 129.037 167.836C127.734 167.836 126.633 167.393 125.744 166.501C124.855 165.61 124.41 164.553 124.41 163.33V154.329H126.098V163.33C126.098 164.188 126.392 164.91 126.976 165.493C127.56 166.08 128.246 166.373 129.037 166.373C129.821 166.373 130.503 166.08 131.083 165.493C131.664 164.906 131.954 164.184 131.954 163.33V154.329H131.958Z" fill="white"/>
<path d="M139.452 163.342H137.877V167.728H136.189V154.333H140.033C141.152 154.483 142.086 154.935 142.84 155.691C143.718 156.567 144.155 157.613 144.155 158.828C144.155 160.05 143.703 161.111 142.802 162.01C142.207 162.612 141.675 162.969 141.216 163.082L144.226 167.728H142.278L139.452 163.342ZM137.877 155.8V161.871H139.539C140.323 161.871 141.005 161.581 141.589 161.002C142.173 160.423 142.467 159.697 142.467 158.828C142.467 157.967 142.173 157.244 141.589 156.669C141.005 156.093 140.319 155.804 139.539 155.804H137.877V155.8Z" fill="white"/>
<path d="M151.57 154.329L156.427 167.724H154.675L152.652 162.157H149.004L146.943 167.724H145.18L150.105 154.329H151.57ZM152.12 160.709L150.832 157.154L149.536 160.709H152.12Z" fill="white"/>
<path d="M157.603 167.728V154.333H159.291V166.268H164.114V167.731H157.603V167.728Z" fill="white"/>
<path d="M182.303 156.172C183.655 157.526 184.33 159.136 184.33 161.001C184.33 162.882 183.652 164.496 182.303 165.846C180.95 167.197 179.3 167.87 177.348 167.87C175.403 167.87 173.753 167.197 172.4 165.846C171.047 164.496 170.373 162.882 170.373 161.001C170.373 159.132 171.047 157.522 172.4 156.172C173.753 154.818 175.4 154.141 177.348 154.141C179.3 154.144 180.95 154.821 182.303 156.172ZM177.348 155.615C175.92 155.615 174.68 156.138 173.636 157.184C172.592 158.229 172.069 159.504 172.069 161.005C172.069 162.521 172.592 163.796 173.636 164.842C174.68 165.884 175.92 166.407 177.348 166.407C178.783 166.407 180.023 165.884 181.067 164.842C182.111 163.8 182.634 162.521 182.634 161.005C182.634 159.504 182.111 158.229 181.067 157.184C180.023 156.138 178.783 155.615 177.348 155.615Z" fill="white"/>
<path d="M189.496 163.342H187.921V167.728H186.233V154.333H190.076C191.195 154.483 192.13 154.935 192.883 155.691C193.761 156.567 194.198 157.613 194.198 158.828C194.198 160.05 193.746 161.111 192.846 162.01C192.25 162.612 191.719 162.969 191.259 163.082L194.27 167.728H192.322L189.496 163.342ZM187.921 155.8V161.871H189.583C190.366 161.871 191.048 161.581 191.632 161.002C192.216 160.423 192.51 159.697 192.51 158.828C192.51 157.967 192.216 157.244 191.632 156.669C191.048 156.093 190.363 155.804 189.583 155.804H187.921V155.8Z" fill="white"/>
<path d="M207.251 165.903C205.876 167.219 204.278 167.878 202.458 167.878C200.506 167.878 198.856 167.204 197.511 165.861C196.165 164.519 195.491 162.905 195.491 161.024C195.491 159.162 196.165 157.556 197.511 156.202C198.856 154.848 200.506 154.171 202.458 154.171C204.274 154.171 205.936 154.859 207.447 156.236L206.271 157.278C205.039 156.191 203.769 155.649 202.458 155.649C201.03 155.649 199.794 156.168 198.75 157.206C197.71 158.245 197.186 159.516 197.186 161.017C197.186 162.533 197.706 163.808 198.75 164.842C199.79 165.88 201.026 166.396 202.458 166.396C203.683 166.396 204.723 166.053 205.574 165.372V161.295H207.251V165.903Z" fill="white"/>
<path d="M214.425 154.329L219.282 167.724H217.53L215.507 162.157H211.859L209.798 167.724H208.035L212.96 154.329H214.425ZM214.975 160.709L213.687 157.154L212.391 160.709H214.975Z" fill="white"/>
<path d="M222.112 154.329L229.758 165.034V154.329H231.446V167.724H229.581L222.131 157.289V167.724H220.443V154.329H222.112Z" fill="white"/>
<path d="M235.722 154.329V167.724H234.034V154.329H235.722Z" fill="white"/>
<path d="M248.519 164.774L249.694 165.816C248.183 167.189 246.522 167.874 244.706 167.874C242.754 167.874 241.103 167.2 239.758 165.858C238.413 164.515 237.738 162.901 237.738 161.02C237.738 159.158 238.413 157.552 239.758 156.198C241.103 154.844 242.754 154.167 244.706 154.167C246.522 154.167 248.183 154.855 249.694 156.232L248.519 157.274C247.287 156.187 246.017 155.645 244.706 155.645C243.277 155.645 242.042 156.164 240.998 157.202C239.958 158.241 239.434 159.512 239.434 161.013C239.434 162.529 239.954 163.804 240.998 164.838C242.038 165.876 243.274 166.392 244.706 166.392C246.017 166.403 247.287 165.861 248.519 164.774Z" fill="white"/>
<path d="M263.964 160.084C264.835 160.953 265.268 162.002 265.268 163.229C265.268 164.444 264.816 165.504 263.915 166.403C263.188 167.137 262.268 167.577 261.153 167.724H256.518V154.329H260.78C261.658 154.329 262.389 154.622 262.981 155.213C263.572 155.804 263.866 156.496 263.866 157.289C263.866 158.091 263.576 158.775 262.999 159.347C263.207 159.396 263.527 159.644 263.964 160.084ZM258.21 155.781V158.722H260.916C261.281 158.685 261.564 158.564 261.764 158.361C262.039 158.094 262.174 157.737 262.174 157.289C262.174 156.857 262.031 156.496 261.745 156.21C261.458 155.924 261.134 155.781 260.776 155.781H258.21ZM260.652 166.264C261.428 166.264 262.106 165.975 262.691 165.395C263.271 164.816 263.561 164.094 263.561 163.232C263.561 162.371 263.271 161.645 262.691 161.062C262.11 160.479 261.428 160.186 260.652 160.186H258.207V166.264H260.652Z" fill="white"/>
<path d="M278.302 156.172C279.654 157.526 280.329 159.136 280.329 161.001C280.329 162.882 279.651 164.496 278.302 165.846C276.949 167.197 275.298 167.87 273.347 167.87C271.402 167.87 269.752 167.197 268.399 165.846C267.046 164.496 266.372 162.882 266.372 161.001C266.372 159.132 267.046 157.522 268.399 156.172C269.752 154.818 271.398 154.141 273.347 154.141C275.298 154.144 276.949 154.821 278.302 156.172ZM273.347 155.615C271.918 155.615 270.679 156.138 269.635 157.184C268.591 158.229 268.068 159.504 268.068 161.005C268.068 162.521 268.591 163.796 269.635 164.842C270.679 165.884 271.918 166.407 273.347 166.407C274.782 166.407 276.022 165.884 277.066 164.842C278.109 163.8 278.633 162.521 278.633 161.005C278.633 159.504 278.109 158.229 277.066 157.184C276.022 156.138 274.782 155.615 273.347 155.615Z" fill="white"/>
<path d="M289.048 157.681L291.761 164.673L294.542 154.329H296.249L292.65 167.724H291.177L288.49 160.667L285.796 167.724H284.323L280.721 154.329H282.435L285.224 164.673L287.918 157.681H289.048Z" fill="white"/>
<path d="M297.519 167.728V154.333H299.207V166.268H304.03V167.731H297.519V167.728Z" fill="white"/>
<path d="M309.049 160.678C308.084 160.362 307.312 159.911 306.728 159.328C306.144 158.745 305.85 158.041 305.85 157.214C305.85 156.409 306.151 155.698 306.758 155.085C307.365 154.475 308.118 154.167 309.019 154.167C309.908 154.167 310.669 154.479 311.302 155.107C311.63 155.431 311.89 155.882 312.075 156.465L310.564 157.052C310.379 156.548 310.209 156.225 310.059 156.074C309.754 155.766 309.407 155.608 309.015 155.608C308.631 155.608 308.288 155.758 307.986 156.059C307.685 156.36 307.534 156.744 307.534 157.21C307.534 157.669 307.689 158.06 308.001 158.384C308.325 158.696 308.766 158.978 309.324 159.241C310.394 159.591 311.287 160.121 312.011 160.844C312.836 161.664 313.25 162.63 313.25 163.747C313.25 164.865 312.843 165.831 312.026 166.647C311.208 167.464 310.206 167.87 309.019 167.87C307.824 167.87 306.814 167.452 305.989 166.614C305.341 165.974 304.946 165.147 304.795 164.127L306.419 163.541C306.517 164.515 306.796 165.226 307.248 165.673C307.745 166.17 308.337 166.418 309.019 166.418C309.708 166.418 310.311 166.162 310.824 165.651C311.336 165.139 311.592 164.503 311.592 163.747C311.592 162.991 311.34 162.359 310.839 161.859C310.33 161.359 309.735 160.964 309.049 160.678Z" fill="white"/>
<path d="M56.6792 113.787C56.6792 124.598 52.5757 135.246 42.5678 144.582H13.6893L14.0172 143.6C31.0827 137.541 40.1072 126.238 40.1072 113.298C40.1072 104.779 36.1696 95.4426 28.4564 86.5994C20.2533 77.2635 15.6563 65.1404 15.6563 53.8372C15.6563 36.9671 25.6642 21.4022 47.9825 18.126L45.0283 35.8161C35.1824 39.5851 31.4068 46.1375 31.4068 53.3444C31.4068 60.7169 35.5102 68.9056 41.0869 75.7853C50.4468 87.2502 56.6792 100.521 56.6792 113.787Z" fill="white"/>
<path d="M93.2708 144.582V74.8033C93.2708 64.4819 89.3332 55.3115 82.9313 48.5935V144.582H67.177V21.2402C77.8444 23.862 87.5245 29.4289 94.7442 37.1286V21.2402H110.498V144.586H93.2708V144.582Z" fill="white"/>
<path d="M182.532 144.421C148.729 144.421 120.996 116.41 120.996 82.9928C120.996 49.0833 149.057 21.2373 182.532 21.2373C216.336 21.2373 244.231 49.0833 244.231 82.9928C244.234 116.41 216.501 144.421 182.532 144.421ZM182.532 37.9457C158.247 37.9457 137.572 57.9303 137.572 82.9928C137.572 107.563 157.919 127.874 182.532 127.874C207.639 127.874 227.659 107.235 227.659 82.9928C227.659 58.423 207.149 37.9457 182.532 37.9457Z" fill="white"/>
<path d="M293.619 101.502C299.527 105.598 303.465 112.805 303.465 120.667C303.465 133.772 292.635 144.582 279.507 144.582H254.729V21.2402H274.91C296.079 21.2402 313.307 39.0958 313.307 59.4077C313.311 76.2778 305.597 91.1844 293.619 101.502ZM274.914 37.7831H270.483V95.7696C285.909 90.8572 296.739 76.1123 296.739 59.4039C296.739 47.7735 286.893 37.7831 274.914 37.7831ZM279.673 110.676H278.034C275.573 111.496 273.113 112.478 270.487 112.971V130.661H279.677C285.092 130.661 289.523 126.076 289.523 120.67C289.519 115.261 285.088 110.676 279.673 110.676Z" fill="white"/>
<path d="M181.251 127.261C181.247 117.955 181.628 108.645 181.579 99.3472C181.541 92.3772 182.095 85.4561 182.22 78.4937C182.348 71.3996 182.815 64.4183 182.807 57.3054C182.807 56.7751 181.979 56.7713 181.979 57.3054C181.99 64.4071 181.508 71.3958 181.391 78.4937C181.274 85.4561 180.712 92.3772 180.75 99.3472C180.799 108.645 180.419 117.955 180.422 127.261C180.422 127.791 181.251 127.791 181.251 127.261Z" fill="white"/>
<path d="M182.845 66.1111C182.951 65.6183 183.384 65.0842 183.625 64.6441C183.972 64.0084 184.364 63.4179 184.82 62.8612C185.66 61.8381 187.069 60.3071 188.354 59.8746C188.855 59.7053 188.64 58.9079 188.135 59.0771C186.673 59.5661 185.283 61.0444 184.303 62.1728C183.753 62.8047 183.324 63.4969 182.909 64.2266C182.619 64.7381 182.171 65.3061 182.046 65.8891C181.937 66.412 182.736 66.6339 182.845 66.1111Z" fill="white"/>
<path d="M189.778 57.2715C188.682 57.343 188.007 58.242 187.921 59.2839C187.834 60.3258 188.761 60.8825 189.729 60.8524C190.92 60.8148 191.357 59.7842 191.402 58.7197C191.444 57.7718 190.43 57.2189 189.598 57.5348C188.803 57.8357 187.781 58.652 188.113 59.645C188.437 60.6155 189.861 60.5778 190.532 60.0588C191.233 59.5171 191.331 57.9749 190.253 57.7981C189.451 57.6665 188.324 58.7573 188.852 59.5547C189.085 59.9045 189.737 59.961 190.103 59.7842C190.438 59.6187 190.558 59.0545 190.442 58.7272C190.291 58.2946 189.662 58.178 189.375 58.5354C189.085 58.8927 189.157 59.4193 189.53 59.6638C189.974 59.9572 190.389 59.2425 189.948 58.9491C189.914 58.9266 189.88 58.904 189.85 58.8814C189.914 58.9642 189.978 59.0469 190.038 59.1297C190.061 59.1974 190.016 59.0544 190.035 59.0356C189.937 59.077 189.839 59.1146 189.741 59.156C189.677 58.9604 189.643 58.919 189.632 59.0356C189.62 59.0883 189.613 59.1447 189.609 59.1974C189.763 58.9604 189.5 59.0394 189.353 58.9905C189.436 59.0544 189.518 59.1184 189.601 59.1786C189.432 58.9491 189.873 58.6933 190.042 58.7009C190.272 58.6294 190.332 58.746 190.219 59.0432C190.208 59.2312 190.11 59.3704 189.933 59.4682C189.65 59.6525 188.882 59.7127 188.916 59.2049C188.961 58.5692 190.389 57.7793 190.577 58.6633C190.634 58.9266 190.468 59.6563 190.238 59.8556C189.948 60.1077 189.443 60.0437 189.119 59.9158C188.207 59.5585 189.044 58.1442 189.782 58.099C190.306 58.0652 190.31 57.2377 189.778 57.2715Z" fill="white"/>
<path d="M182.691 57.1732C179.036 53.3478 177.706 48.6422 177.555 43.4138C177.54 42.8835 176.711 42.8797 176.726 43.4138C176.884 48.8943 178.29 53.7691 182.103 57.7562C182.472 58.1437 183.056 57.5569 182.691 57.1732Z" fill="white"/>
<path d="M182.804 57.4779C183.343 52.0351 180.298 47.7959 177.581 43.2784C177.306 42.8233 176.59 43.237 176.865 43.6959C179.48 48.0442 182.495 52.2194 181.975 57.4779C181.922 58.0082 182.751 58.0045 182.804 57.4779Z" fill="white"/>
<path d="M182.216 81.5101C182.397 79.9604 184.266 78.6589 185.343 77.6997C186.315 76.8346 187.875 75.646 189.164 75.315C189.68 75.1833 189.462 74.3859 188.946 74.5175C187.333 74.9275 185.675 76.3118 184.447 77.3913C183.226 78.4671 181.594 79.7836 181.391 81.5101C181.327 82.0367 182.156 82.0329 182.216 81.5101Z" fill="white"/>
<path d="M188.501 75.074C188.509 72.2567 191.975 69.5898 194.353 68.751C196.267 68.0739 198.377 67.7843 200.389 67.694C202.684 67.5962 205.001 67.6865 207.3 67.6865C207.556 67.6865 209.983 67.5586 210.077 67.6865C210.262 67.9385 209.414 68.578 209.045 68.9391C206.565 71.3389 203.539 73.3099 200.239 74.3781C196.844 75.4765 191.723 76.0482 188.275 74.916C187.766 74.7505 187.552 75.5479 188.056 75.7134C192.02 77.0149 197.876 76.3228 201.682 74.7166C203.841 73.8026 205.789 72.7231 207.613 71.2636C208.856 70.2706 210.898 68.9691 211.385 67.3856C211.464 67.126 211.249 66.8627 210.985 66.8627C205.699 66.859 200.043 66.2496 194.895 67.7091C191.798 68.5892 187.68 71.5119 187.668 75.074C187.668 75.6081 188.497 75.6081 188.501 75.074Z" fill="white"/>
<path d="M188.181 75.3305C195.909 75.1725 203.848 72.0919 210.45 68.2891C210.91 68.022 210.495 67.3073 210.032 67.5744C206.659 69.5153 203.132 71.3584 199.357 72.3778C195.822 73.3332 191.843 74.4315 188.181 74.503C187.649 74.5143 187.649 75.338 188.181 75.3305Z" fill="white"/>
<path d="M188.686 75.3375C190.698 71.7265 195.562 70.5116 199.308 69.8195C203.061 69.1274 206.98 69.0559 210.687 68.1945C211.207 68.0742 210.985 67.2767 210.469 67.3971C205.849 68.4729 201.003 68.3713 196.395 69.6164C193.271 70.4627 189.639 71.9297 187.977 74.92C187.71 75.3864 188.426 75.8039 188.686 75.3375Z" fill="white"/>
<path d="M181.477 91.6888C181.274 90.9591 180.833 90.4588 180.407 89.857C179.932 89.1874 179.593 88.4539 179.073 87.807C178.18 86.6973 177.204 85.8585 175.972 85.1664C175.509 84.9069 175.09 85.6178 175.554 85.8811C176.53 86.4303 177.321 87.081 178.082 87.9198C178.674 88.5705 179.032 89.2702 179.499 89.9961C179.914 90.6431 180.471 91.1396 180.682 91.9069C180.822 92.4223 181.62 92.2041 181.477 91.6888Z" fill="white"/>
<path d="M175.814 85.1281C172.189 86.5688 167.596 84.609 164.89 82.2243C162.501 80.1179 160.519 77.5225 158.568 75.0286C158.225 74.5885 157.072 74.991 158.549 74.7315C159.566 74.5509 160.583 74.4531 161.616 74.4343C163.681 74.3967 165.93 74.2199 167.882 74.9195C172.411 76.5407 176.108 80.178 175.995 85.2899C175.984 85.8202 176.809 85.8202 176.824 85.2899C176.926 80.8213 174.284 77.1839 170.418 75.1189C166.48 73.0162 161.657 73.257 157.362 74.0807C157.181 74.1146 157.064 74.3064 157.057 74.4794C157.041 74.9308 157.234 74.8706 157.464 75.2355C157.935 75.9803 158.854 76.7401 159.419 77.4848C160.919 79.4671 162.712 81.408 164.574 83.0593C167.396 85.5645 172.306 87.4113 176.033 85.9293C176.522 85.7337 176.308 84.9325 175.814 85.1281Z" fill="white"/>
<path d="M176.198 85.08C173.907 81.8076 171.741 78.6668 168.361 76.4099C165.354 74.3975 161.616 73.9424 158.066 73.9424C157.535 73.9424 157.531 74.7699 158.066 74.7699C161.495 74.7699 165.03 75.2137 167.943 77.1246C171.213 79.2686 173.282 82.3567 175.482 85.5013C175.788 85.9301 176.507 85.5164 176.198 85.08Z" fill="white"/>
<path d="M157.754 74.8149C161.145 76.3721 164.197 77.7112 167.291 79.8552C169.838 81.6194 172.457 83.88 175.313 85.1062C175.795 85.3131 176.221 84.6022 175.731 84.3916C172.875 83.1616 170.26 80.9047 167.709 79.1368C164.611 76.9928 161.552 75.6499 158.172 74.0965C157.69 73.8821 157.268 74.593 157.754 74.8149Z" fill="white"/>
<path d="M157.968 74.9243C163.79 78.257 168.116 85.81 175.52 85.81C176.051 85.81 176.055 84.9824 175.52 84.9824C168.398 84.9824 164.005 77.4294 158.383 74.2096C157.923 73.9463 157.505 74.661 157.968 74.9243Z" fill="white"/>
<path d="M181.85 72.7909C181.379 72.5201 181.078 72.0762 180.694 71.7001C180.298 71.3089 179.868 70.9553 179.477 70.5679C178.73 69.8269 178.15 68.9429 177.423 68.1944C177.05 67.8107 176.466 68.3975 176.839 68.7774C177.638 69.6012 178.275 70.5641 179.111 71.3615C179.835 72.0499 180.566 73.0053 181.432 73.5056C181.896 73.7689 182.314 73.0542 181.85 72.7909Z" fill="white"/>
<path d="M177.242 68.1228C175.147 67.4457 174.341 66.1969 173.18 64.4666C172.234 63.0636 170.998 61.4086 170.422 59.81C170.29 59.983 170.154 60.1598 170.023 60.3328C170.678 60.2538 172.001 61.6305 172.378 61.9878C173.203 62.7702 173.983 63.6918 174.567 64.6698C175.377 66.0239 175.889 67.7955 177.001 68.9315C177.374 69.3151 177.958 68.7284 177.585 68.3485C176.869 67.615 176.515 66.4564 176.033 65.5725C175.543 64.6698 175.038 63.8046 174.397 63.0034C173.64 62.0555 171.5 59.3285 170.023 59.5053C169.778 59.5354 169.521 59.7498 169.623 60.0281C170.373 62.1007 171.952 64.0378 173.146 65.8772C174.239 67.5661 175.102 68.2958 177.024 68.9164C177.528 69.0857 177.747 68.2883 177.242 68.1228Z" fill="white"/>
<path d="M177.811 68.5742C177.265 66.0465 176.963 63.6994 175.158 61.6682C174.058 60.4269 171.492 58.6741 169.729 59.1631C169.216 59.306 169.435 60.1034 169.947 59.9605C171.82 59.4414 174.412 61.9616 175.245 63.2179C176.402 64.9595 176.583 66.8252 177.008 68.7962C177.125 69.3115 177.924 69.0933 177.811 68.5742Z" fill="white"/>
<path d="M181.477 102.198C181.086 101.149 180.633 99.9716 179.985 99.0576C179.322 98.1248 178.169 96.9023 177.099 96.4283C176.617 96.2139 176.195 96.9286 176.681 97.143C177.103 97.3273 177.687 97.8502 178.018 98.136C178.553 98.5949 179.111 99.1968 179.48 99.7986C179.966 100.596 180.354 101.544 180.679 102.42C180.863 102.909 181.666 102.695 181.477 102.198Z" fill="white"/>
<path d="M177.306 96.7483C177.317 96.0787 177.366 95.4205 176.944 94.8487C176.541 94.2996 175.95 94.2431 175.309 94.2996C174.57 94.3597 174.491 94.8976 174.506 95.5258C174.521 96.1276 174.782 96.5865 175.358 96.8122C176.666 97.3238 177.265 95.6462 176.522 94.7472C176.161 94.3108 175.599 94.2394 175.249 94.7434C174.902 95.2437 175.011 95.9809 175.181 96.5301C175.343 97.0605 176.017 97.4103 176.47 96.989C176.869 96.6166 176.937 95.8417 176.779 95.3452C176.609 94.8074 175.927 94.5704 175.441 94.8186C174.917 95.0857 174.751 95.7402 174.846 96.2781C174.94 96.8348 175.332 97.32 175.935 97.3388C176.519 97.3576 176.967 96.9025 177.073 96.3495C177.17 95.8342 176.967 95.2136 176.579 94.86C176.195 94.5102 175.531 94.4575 175.045 94.5854C173.719 94.9352 174.043 97.0717 175.237 97.3839C175.844 97.5419 176.534 97.2937 176.861 96.7558C177.012 96.5075 177.088 96.1765 176.929 95.9132C176.73 95.5747 176.323 95.5559 175.972 95.5634C175.441 95.5747 175.437 96.4022 175.972 96.3909C176.074 96.4248 176.138 96.3909 176.172 96.2969C176.142 96.3646 176.097 96.421 176.036 96.4661C175.953 96.5338 175.833 96.5828 175.731 96.6016C175.46 96.6467 175.196 96.5339 175.087 96.2781C175.008 96.0938 174.97 95.6725 175.102 95.4919C175.226 95.3227 175.543 95.3415 175.731 95.3678C176.006 95.4092 176.142 95.5559 176.225 95.8267C176.289 96.0336 176.315 96.4173 176.051 96.5075C175.388 96.7332 175.678 95.2249 175.987 95.6236C176.07 95.7289 175.916 96.2781 175.98 96.3082C175.882 96.2593 175.837 95.5784 175.852 95.4506C175.855 95.349 175.886 95.2625 175.95 95.1797C175.814 95.1835 175.799 95.2211 175.904 95.2888C175.923 95.3678 176.01 95.4393 176.033 95.522C176.112 95.7853 175.999 96.1539 175.686 96.0524C175.354 95.9471 175.343 95.7026 175.335 95.3941C175.332 95.3001 175.294 95.1948 175.362 95.1196C175.411 95.0669 175.852 95.097 175.923 95.1083C176.628 95.2399 176.488 96.2329 176.481 96.7445C176.47 97.2786 177.295 97.2786 177.306 96.7483Z" fill="white"/>
<path d="M181.477 109.92C181.941 108.239 183.38 106.501 184.477 105.192C185.539 103.921 186.643 102.872 187.974 101.886C188.396 101.574 187.985 100.855 187.555 101.171C186.056 102.281 184.801 103.488 183.606 104.933C182.487 106.287 181.15 107.998 180.682 109.702C180.535 110.214 181.334 110.436 181.477 109.92Z" fill="white"/>
<path d="M187.646 101.69C188.358 92.001 200.024 91.0268 207.307 89.2927C207.153 89.0896 206.995 88.8865 206.84 88.6872C205.246 92.3433 202.782 96.1912 199.327 98.2977C195.619 100.562 191.557 101.57 187.231 101.378C186.7 101.356 186.7 102.179 187.231 102.206C196.553 102.62 203.882 97.5341 207.552 89.1047C207.692 88.7812 207.462 88.4088 207.085 88.4991C199.357 90.3422 187.563 91.5383 186.817 101.694C186.779 102.221 187.608 102.217 187.646 101.69Z" fill="white"/>
<path d="M187.872 101.524C191.433 100.738 194.752 99.5835 197.974 97.8569C199.692 96.9354 201.297 95.8107 202.827 94.6071C204.805 93.0536 205.747 91.4136 207.153 89.3974C207.458 88.9611 206.742 88.5474 206.437 88.9799C204.832 91.2782 203.588 93.0498 201.297 94.7312C199.839 95.8032 198.336 96.7661 196.712 97.5748C193.784 99.0343 190.833 100.024 187.649 100.727C187.133 100.844 187.352 101.641 187.872 101.524Z" fill="white"/>
<path d="M188.056 101.42C190.999 98.17 194.73 96.955 198.63 95.1909C201.81 93.7503 204.564 91.8582 207.093 89.4848C207.481 89.1199 206.897 88.5369 206.509 88.9017C203.294 91.9222 199.779 93.8104 195.724 95.5069C192.559 96.8309 189.79 98.2828 187.472 100.837C187.114 101.228 187.698 101.815 188.056 101.42Z" fill="white"/>
<path d="M188.362 101.336C190.513 97.4319 193.166 94.735 197.458 93.2078C200.706 92.053 203.833 90.9058 207.006 89.5479C207.496 89.3373 207.074 88.6263 206.588 88.8332C204.357 89.7886 202.164 90.8418 199.854 91.6017C198.083 92.1847 196.244 92.6135 194.59 93.5087C191.297 95.2954 189.421 97.6877 187.646 100.915C187.39 101.385 188.105 101.803 188.362 101.336Z" fill="white"/>
<path d="M176.782 43.6246C177.999 45.6558 180.11 46.8632 181.281 48.9471C182.6 51.3017 183.531 54.7059 182.069 57.1884C181.798 57.6473 182.514 58.0648 182.785 57.6059C184.021 55.5033 183.719 52.9004 182.954 50.6773C181.832 47.4199 179.175 46.0056 177.498 43.2071C177.227 42.752 176.511 43.1657 176.782 43.6246Z" fill="white"/>
<path d="M182.804 57.4786C182.529 52.4909 178.316 48.2329 177.544 43.3054C177.461 42.7826 176.662 43.0045 176.745 43.5236C177.05 45.4645 177.988 47.5634 178.798 49.335C179.925 51.8101 181.824 54.6951 181.979 57.4786C182.005 58.0089 182.834 58.0089 182.804 57.4786Z" fill="white"/>
<path d="M181.76 88.8714C182.031 88.2959 182.227 87.728 182.672 87.2503C183.15 86.7425 183.765 86.4039 184.352 86.0391C185.197 85.5162 186.176 85.2266 186.926 84.5571C187.322 84.1997 186.738 83.6167 186.342 83.974C185.426 84.794 184.1 85.1739 183.071 85.8548C182.551 86.2008 182.144 86.5958 181.749 87.0735C181.376 87.5248 181.3 87.9123 181.044 88.4539C180.822 88.9354 181.534 89.3567 181.76 88.8714Z" fill="white"/>
<path d="M187.084 83.2295C186.297 83.1618 185.536 83.9517 185.814 84.7228C186.127 85.5804 187.129 85.7459 187.706 85.0275C188.252 84.3429 187.393 83.1655 186.647 83.7975C185.886 84.4444 186.832 85.6142 187.646 85.0199C188.362 84.5009 188.064 83.1129 187.16 83C186.259 82.891 185.562 84.2263 185.905 84.9748C186.09 85.3735 186.496 85.5917 186.877 85.7798C187.28 85.9829 187.702 85.949 188.056 85.6594C188.802 85.0425 188.735 83.805 188.068 83.1467C187.333 82.4208 186.074 82.59 185.747 83.6094C185.626 83.9893 185.6 84.4745 185.792 84.8356C186.01 85.2494 186.515 85.7008 186.998 85.6067C187.521 85.5052 187.299 84.7077 186.779 84.8093C186.741 84.8168 186.704 84.8243 186.666 84.8319C186.772 84.8469 186.877 84.8582 186.986 84.8732C186.704 84.7115 186.474 84.4858 186.489 84.151C186.5 83.8877 186.587 83.5567 186.896 83.5154C187.318 83.4627 187.585 83.82 187.698 84.1586C187.785 84.4181 187.838 84.9936 187.45 85.0801C187.276 85.1177 186.768 84.8319 186.674 84.6626C186.576 84.4858 186.696 84.2789 186.79 84.1247C186.839 84.0307 186.9 83.9479 186.971 83.8727C187.126 83.8426 187.19 83.8877 187.175 84.0194C187.356 84.3353 186.805 84.9522 186.628 84.5046C186.515 84.2225 186.832 84.0344 187.092 84.0608C187.616 84.1059 187.612 83.2784 187.084 83.2295Z" fill="white"/>
</svg>
