<svg width="868" height="495" viewBox="0 0 868 495" fill="none" xmlns="http://www.w3.org/2000/svg">
<path d="M47.7597 427.17C45.1997 426.33 43.1497 425.13 41.5997 423.58C40.0497 422.03 39.2697 420.16 39.2697 417.96C39.2697 415.82 40.0697 413.93 41.6797 412.3C43.2897 410.68 45.2897 409.86 47.6797 409.86C50.0397 409.86 52.0597 410.69 53.7397 412.36C54.6097 413.22 55.2997 414.42 55.7897 415.97L51.7797 417.53C51.2897 416.19 50.8397 415.33 50.4397 414.93C49.6297 414.11 48.7097 413.69 47.6697 413.69C46.6497 413.69 45.7397 414.09 44.9397 414.89C44.1397 415.69 43.7397 416.71 43.7397 417.95C43.7397 419.17 44.1497 420.21 44.9797 421.07C45.8397 421.9 47.0097 422.65 48.4897 423.35C51.3297 424.28 53.6997 425.69 55.6197 427.61C57.8097 429.79 58.9097 432.36 58.9097 435.33C58.9097 438.3 57.8297 440.87 55.6597 443.04C53.4897 445.21 50.8297 446.29 47.6797 446.29C44.5097 446.29 41.8297 445.18 39.6397 442.95C37.9197 441.25 36.8697 439.05 36.4697 436.34L40.7797 434.78C41.0397 437.37 41.7797 439.26 42.9797 440.45C44.2997 441.77 45.8697 442.43 47.6797 442.43C49.5097 442.43 51.1097 441.75 52.4697 440.39C53.8297 439.03 54.5097 437.34 54.5097 435.33C54.5097 433.32 53.8397 431.64 52.5097 430.31C51.1597 428.98 49.5697 427.93 47.7597 427.17Z" fill="white"/>
<path d="M93.3602 415.19C96.9502 418.79 98.7402 423.07 98.7402 428.03C98.7402 433.03 96.9402 437.32 93.3602 440.91C89.7702 444.5 85.3902 446.29 80.2102 446.29C75.0502 446.29 70.6702 444.5 67.0802 440.91C63.4902 437.32 61.7002 433.03 61.7002 428.03C61.7002 423.06 63.4902 418.78 67.0802 415.19C70.6702 411.59 75.0402 409.79 80.2102 409.79C85.3902 409.8 89.7702 411.6 93.3602 415.19ZM80.2102 413.71C76.4202 413.71 73.1302 415.1 70.3602 417.88C67.5902 420.66 66.2002 424.05 66.2002 428.04C66.2002 432.07 67.5902 435.46 70.3602 438.24C73.1302 441.01 76.4202 442.4 80.2102 442.4C84.0202 442.4 87.3102 441.01 90.0802 438.24C92.8502 435.47 94.2402 432.07 94.2402 428.04C94.2402 424.05 92.8502 420.66 90.0802 417.88C87.3102 415.1 84.0202 413.71 80.2102 413.71Z" fill="white"/>
<path d="M108.259 434.25V445.91H103.779V410.3H113.979C116.949 410.7 119.429 411.9 121.429 413.91C123.759 416.24 124.919 419.02 124.919 422.25C124.919 425.5 123.739 428.31 121.379 430.69C119.019 433.07 116.119 434.25 112.669 434.25H108.259ZM108.259 414.2V430.34H112.669C114.749 430.34 116.559 429.57 118.109 428.03C119.659 426.49 120.439 424.56 120.439 422.25C120.439 419.96 119.659 418.04 118.109 416.51C116.559 414.98 114.739 414.21 112.669 414.21H108.259V414.2Z" fill="white"/>
<path d="M133.5 430.04V445.9H129.02V410.29H133.5V426.15H148.13V410.29H152.61V445.9H148.13V430.04H133.5Z" fill="white"/>
<path d="M163.79 410.29V445.9H159.31V410.29H163.79Z" fill="white"/>
<path d="M183.91 410.29L196.8 445.9H192.15L186.78 431.1H177.1L171.63 445.9H166.95L180.02 410.29H183.91ZM185.37 427.25L181.95 417.8L178.51 427.25H185.37Z" fill="white"/>
<path d="M196.96 415.44L196.71 414.87C196.15 414.33 195.87 413.67 195.87 412.92C195.87 412.18 196.17 411.52 196.77 410.94C197.37 410.36 198.14 410.07 199.06 410.07C199.97 410.07 200.72 410.36 201.32 410.94C201.92 411.52 202.22 412.18 202.22 412.92C202.22 413.32 202.15 413.7 202.02 414.06L199.6 418.91H195.66L196.96 415.44Z" fill="white"/>
<path d="M216.49 427.17C213.93 426.33 211.88 425.13 210.33 423.58C208.78 422.03 208 420.16 208 417.96C208 415.82 208.8 413.93 210.41 412.3C212.02 410.68 214.02 409.86 216.41 409.86C218.77 409.86 220.79 410.69 222.47 412.36C223.34 413.22 224.03 414.42 224.52 415.97L220.51 417.53C220.02 416.19 219.57 415.33 219.17 414.93C218.36 414.11 217.44 413.69 216.4 413.69C215.38 413.69 214.47 414.09 213.67 414.89C212.87 415.69 212.47 416.71 212.47 417.95C212.47 419.17 212.88 420.21 213.71 421.07C214.57 421.9 215.74 422.65 217.22 423.35C220.06 424.28 222.43 425.69 224.35 427.61C226.54 429.79 227.64 432.36 227.64 435.33C227.64 438.3 226.56 440.87 224.39 443.04C222.22 445.21 219.56 446.29 216.41 446.29C213.24 446.29 210.56 445.18 208.37 442.95C206.65 441.25 205.6 439.05 205.2 436.34L209.51 434.78C209.77 437.37 210.51 439.26 211.71 440.45C213.03 441.77 214.6 442.43 216.41 442.43C218.24 442.43 219.84 441.75 221.2 440.39C222.56 439.03 223.24 437.34 223.24 435.33C223.24 433.32 222.57 431.64 221.24 430.31C219.89 428.98 218.3 427.93 216.49 427.17Z" fill="white"/>
<path d="M249.93 410.29L270.22 438.75V410.29H274.7V445.9H269.75L249.98 418.16V445.9H245.5V410.29H249.93Z" fill="white"/>
<path d="M294.689 410.29L307.579 445.9H302.929L297.559 431.1H287.879L282.409 445.9H277.729L290.799 410.29H294.689ZM296.149 427.25L292.729 417.8L289.289 427.25H296.149Z" fill="white"/>
<path d="M318.239 414.18V445.91H313.789V414.18H305.279V410.29H326.739V414.18H318.239Z" fill="white"/>
<path d="M350.2 410.29H354.68V435.49C354.3 438.28 353.1 440.68 351.09 442.69C348.76 445.03 345.89 446.2 342.45 446.2C338.99 446.2 336.07 445.02 333.71 442.65C331.35 440.28 330.17 437.47 330.17 434.22V410.29H334.65V434.22C334.65 436.5 335.43 438.42 336.98 439.97C338.53 441.53 340.35 442.31 342.45 442.31C344.53 442.31 346.34 441.53 347.88 439.97C349.42 438.41 350.19 436.49 350.19 434.22V410.29H350.2Z" fill="white"/>
<path d="M370.09 434.25H365.91V445.91H361.43V410.3H371.63C374.6 410.7 377.08 411.9 379.08 413.91C381.41 416.24 382.57 419.02 382.57 422.25C382.57 425.5 381.37 428.32 378.98 430.71C377.4 432.31 375.99 433.26 374.77 433.56L382.76 445.91H377.59L370.09 434.25ZM365.91 414.2V430.34H370.32C372.4 430.34 374.21 429.57 375.76 428.03C377.31 426.49 378.09 424.56 378.09 422.25C378.09 419.96 377.31 418.04 375.76 416.51C374.21 414.98 372.39 414.21 370.32 414.21H365.91V414.2Z" fill="white"/>
<path d="M402.25 410.29L415.14 445.9H410.49L405.12 431.1H395.44L389.97 445.9H385.29L398.36 410.29H402.25ZM403.71 427.25L400.29 417.8L396.85 427.25H403.71Z" fill="white"/>
<path d="M418.26 445.91V410.3H422.74V442.03H435.54V445.92H418.26V445.91Z" fill="white"/>
<path d="M483.809 415.19C487.399 418.79 489.189 423.07 489.189 428.03C489.189 433.03 487.389 437.32 483.809 440.91C480.219 444.5 475.839 446.29 470.659 446.29C465.499 446.29 461.119 444.5 457.529 440.91C453.939 437.32 452.149 433.03 452.149 428.03C452.149 423.06 453.939 418.78 457.529 415.19C461.119 411.59 465.489 409.79 470.659 409.79C475.839 409.8 480.219 411.6 483.809 415.19ZM470.659 413.71C466.869 413.71 463.579 415.1 460.809 417.88C458.039 420.66 456.649 424.05 456.649 428.04C456.649 432.07 458.039 435.46 460.809 438.24C463.579 441.01 466.869 442.4 470.659 442.4C474.469 442.4 477.759 441.01 480.529 438.24C483.299 435.47 484.689 432.07 484.689 428.04C484.689 424.05 483.299 420.66 480.529 417.88C477.759 415.1 474.469 413.71 470.659 413.71Z" fill="white"/>
<path d="M502.899 434.25H498.719V445.91H494.239V410.3H504.439C507.409 410.7 509.889 411.9 511.889 413.91C514.219 416.24 515.379 419.02 515.379 422.25C515.379 425.5 514.179 428.32 511.789 430.71C510.209 432.31 508.799 433.26 507.579 433.56L515.569 445.91H510.399L502.899 434.25ZM498.719 414.2V430.34H503.129C505.209 430.34 507.019 429.57 508.569 428.03C510.119 426.49 510.899 424.56 510.899 422.25C510.899 419.96 510.119 418.04 508.569 416.51C507.019 414.98 505.199 414.21 503.129 414.21H498.719V414.2Z" fill="white"/>
<path d="M550.02 441.06C546.37 444.56 542.13 446.31 537.3 446.31C532.12 446.31 527.74 444.52 524.17 440.95C520.6 437.38 518.81 433.09 518.81 428.09C518.81 423.14 520.6 418.87 524.17 415.27C527.74 411.67 532.12 409.87 537.3 409.87C542.12 409.87 546.53 411.7 550.54 415.36L547.42 418.13C544.15 415.24 540.78 413.8 537.3 413.8C533.51 413.8 530.23 415.18 527.46 417.94C524.7 420.7 523.31 424.08 523.31 428.07C523.31 432.1 524.69 435.49 527.46 438.24C530.22 441 533.5 442.37 537.3 442.37C540.55 442.37 543.31 441.46 545.57 439.65V428.81H550.02V441.06Z" fill="white"/>
<path d="M569.06 410.29L581.95 445.9H577.3L571.93 431.1H562.25L556.78 445.9H552.1L565.17 410.29H569.06ZM570.52 427.25L567.1 417.8L563.66 427.25H570.52Z" fill="white"/>
<path d="M589.459 410.29L609.749 438.75V410.29H614.229V445.9H609.279L589.509 418.16V445.9H585.029V410.29H589.459Z" fill="white"/>
<path d="M625.58 410.29V445.9H621.1V410.29H625.58Z" fill="white"/>
<path d="M659.54 438.06L662.66 440.83C658.65 444.48 654.24 446.3 649.42 446.3C644.24 446.3 639.86 444.51 636.29 440.94C632.72 437.37 630.93 433.08 630.93 428.08C630.93 423.13 632.72 418.86 636.29 415.26C639.86 411.66 644.24 409.86 649.42 409.86C654.24 409.86 658.65 411.69 662.66 415.35L659.54 418.12C656.27 415.23 652.9 413.79 649.42 413.79C645.63 413.79 642.35 415.17 639.58 417.93C636.82 420.69 635.43 424.07 635.43 428.06C635.43 432.09 636.81 435.48 639.58 438.23C642.34 440.99 645.62 442.36 649.42 442.36C652.9 442.39 656.27 440.95 659.54 438.06Z" fill="white"/>
<path d="M700.53 425.59C702.84 427.9 703.99 430.69 703.99 433.95C703.99 437.18 702.79 440 700.4 442.39C698.47 444.34 696.03 445.51 693.07 445.9H680.77V410.29H692.08C694.41 410.29 696.349 411.07 697.919 412.64C699.489 414.21 700.27 416.05 700.27 418.16C700.27 420.29 699.499 422.11 697.969 423.63C698.519 423.76 699.37 424.42 700.53 425.59ZM685.26 414.15V421.97H692.44C693.41 421.87 694.16 421.55 694.69 421.01C695.42 420.3 695.78 419.35 695.78 418.16C695.78 417.01 695.4 416.05 694.64 415.29C693.88 414.53 693.02 414.15 692.07 414.15H685.26ZM691.74 442.02C693.8 442.02 695.6 441.25 697.15 439.71C698.69 438.17 699.46 436.25 699.46 433.96C699.46 431.67 698.69 429.74 697.15 428.19C695.61 426.64 693.8 425.86 691.74 425.86H685.25V442.02H691.74Z" fill="white"/>
<path d="M738.58 415.19C742.17 418.79 743.96 423.07 743.96 428.03C743.96 433.03 742.16 437.32 738.58 440.91C734.99 444.5 730.61 446.29 725.43 446.29C720.27 446.29 715.89 444.5 712.3 440.91C708.71 437.32 706.92 433.03 706.92 428.03C706.92 423.06 708.71 418.78 712.3 415.19C715.89 411.59 720.26 409.79 725.43 409.79C730.61 409.8 734.99 411.6 738.58 415.19ZM725.43 413.71C721.64 413.71 718.35 415.1 715.58 417.88C712.81 420.66 711.42 424.05 711.42 428.04C711.42 432.07 712.81 435.46 715.58 438.24C718.35 441.01 721.64 442.4 725.43 442.4C729.24 442.4 732.53 441.01 735.3 438.24C738.07 435.47 739.46 432.07 739.46 428.04C739.46 424.05 738.07 420.66 735.3 417.88C732.53 415.1 729.24 413.71 725.43 413.71Z" fill="white"/>
<path d="M767.1 419.2L774.3 437.79L781.68 410.29H786.21L776.66 445.9H772.75L765.62 427.14L758.47 445.9H754.56L745 410.29H749.55L756.95 437.79L764.1 419.2H767.1Z" fill="white"/>
<path d="M789.58 445.91V410.3H794.06V442.03H806.86V445.92H789.58V445.91Z" fill="white"/>
<path d="M820.18 427.17C817.62 426.33 815.57 425.13 814.02 423.58C812.47 422.03 811.69 420.16 811.69 417.96C811.69 415.82 812.49 413.93 814.1 412.3C815.71 410.68 817.71 409.86 820.1 409.86C822.46 409.86 824.48 410.69 826.16 412.36C827.03 413.22 827.72 414.42 828.21 415.97L824.2 417.53C823.71 416.19 823.26 415.33 822.86 414.93C822.05 414.11 821.13 413.69 820.09 413.69C819.07 413.69 818.16 414.09 817.36 414.89C816.56 415.69 816.16 416.71 816.16 417.95C816.16 419.17 816.57 420.21 817.4 421.07C818.26 421.9 819.43 422.65 820.91 423.35C823.75 424.28 826.12 425.69 828.04 427.61C830.23 429.79 831.33 432.36 831.33 435.33C831.33 438.3 830.25 440.87 828.08 443.04C825.91 445.21 823.25 446.29 820.1 446.29C816.93 446.29 814.25 445.18 812.06 442.95C810.34 441.25 809.29 439.05 808.89 436.34L813.2 434.78C813.46 437.37 814.2 439.26 815.4 440.45C816.72 441.77 818.29 442.43 820.1 442.43C821.93 442.43 823.53 441.75 824.89 440.39C826.25 439.03 826.93 437.34 826.93 435.33C826.93 433.32 826.26 431.64 824.93 430.31C823.58 428.98 822 427.93 820.18 427.17Z" fill="white"/>
<path d="M150.42 302.51C150.42 331.25 139.53 359.56 112.97 384.38H36.3301L37.2001 381.77C82.4901 365.66 106.44 335.61 106.44 301.21C106.44 278.56 95.9901 253.74 75.5201 230.23C53.7501 205.41 41.5501 173.18 41.5501 143.13C41.5501 98.2804 68.1101 56.9004 127.34 48.1904L119.5 95.2204C93.3701 105.24 83.3501 122.66 83.3501 141.82C83.3501 161.42 94.2401 183.19 109.04 201.48C133.88 231.96 150.42 267.24 150.42 302.51Z" fill="white"/>
<path d="M247.53 384.381V198.871C247.53 171.431 237.08 147.051 220.09 129.191V384.381H178.28V56.4707C206.59 63.4407 232.28 78.2407 251.44 98.7107V56.4707H293.25V384.391H247.53V384.381Z" fill="white"/>
<path d="M484.42 383.95C394.71 383.95 321.11 309.48 321.11 220.64C321.11 130.49 395.58 56.46 484.42 56.46C574.13 56.46 648.16 130.49 648.16 220.64C648.17 309.48 574.57 383.95 484.42 383.95ZM484.42 100.88C419.97 100.88 365.1 154.01 365.1 220.64C365.1 285.96 419.1 339.96 484.42 339.96C551.05 339.96 604.18 285.09 604.18 220.64C604.18 155.32 549.75 100.88 484.42 100.88Z" fill="white"/>
<path d="M779.23 269.851C794.91 280.741 805.36 299.901 805.36 320.801C805.36 355.641 776.621 384.381 741.781 384.381H676.021V56.4707H729.581C785.761 56.4707 831.48 103.941 831.48 157.941C831.49 202.791 811.02 242.421 779.23 269.851ZM729.591 100.451H717.831V254.611C758.771 241.551 787.51 202.351 787.51 157.931C787.51 127.011 761.381 100.451 729.591 100.451ZM742.22 294.241H737.87C731.34 296.421 724.811 299.031 717.841 300.341V347.371H742.23C756.6 347.371 768.36 335.181 768.36 320.811C768.35 306.431 756.59 294.241 742.22 294.241Z" fill="white"/>
<path d="M481.02 338.33C481.01 313.59 482.02 288.84 481.89 264.12C481.79 245.59 483.26 227.19 483.59 208.68C483.93 189.82 485.17 171.26 485.15 152.35C485.15 150.94 482.95 150.93 482.95 152.35C482.98 171.23 481.7 189.81 481.39 208.68C481.08 227.19 479.59 245.59 479.69 264.12C479.82 288.84 478.81 313.59 478.82 338.33C478.82 339.74 481.02 339.74 481.02 338.33Z" fill="white"/>
<path d="M485.25 175.76C485.53 174.45 486.68 173.03 487.32 171.86C488.24 170.17 489.28 168.6 490.49 167.12C492.72 164.4 496.46 160.33 499.87 159.18C501.2 158.73 500.63 156.61 499.29 157.06C495.41 158.36 491.72 162.29 489.12 165.29C487.66 166.97 486.52 168.81 485.42 170.75C484.65 172.11 483.46 173.62 483.13 175.17C482.84 176.56 484.96 177.15 485.25 175.76Z" fill="white"/>
<path d="M503.65 152.26C500.74 152.45 498.95 154.841 498.72 157.611C498.49 160.381 500.95 161.861 503.52 161.781C506.68 161.681 507.84 158.941 507.96 156.111C508.07 153.591 505.38 152.121 503.17 152.961C501.06 153.761 498.35 155.931 499.23 158.571C500.09 161.151 503.87 161.051 505.65 159.671C507.51 158.231 507.77 154.131 504.91 153.661C502.78 153.311 499.79 156.211 501.19 158.331C501.81 159.261 503.54 159.411 504.51 158.941C505.4 158.501 505.72 157.001 505.41 156.131C505.01 154.981 503.34 154.671 502.58 155.621C501.81 156.571 502 157.97 502.99 158.621C504.17 159.401 505.27 157.501 504.1 156.721C504.01 156.661 503.92 156.6 503.84 156.54C504.01 156.76 504.18 156.981 504.34 157.201C504.4 157.381 504.28 157.001 504.33 156.951C504.07 157.061 503.81 157.161 503.55 157.271C503.38 156.751 503.29 156.641 503.26 156.951C503.23 157.091 503.21 157.241 503.2 157.381C503.61 156.751 502.91 156.961 502.52 156.831C502.74 157.001 502.96 157.171 503.18 157.331C502.73 156.721 503.9 156.041 504.35 156.061C504.96 155.871 505.12 156.181 504.82 156.971C504.79 157.471 504.53 157.841 504.06 158.101C503.31 158.591 501.27 158.75 501.36 157.4C501.48 155.71 505.27 153.611 505.77 155.961C505.92 156.661 505.48 158.601 504.87 159.131C504.1 159.801 502.76 159.63 501.9 159.29C499.48 158.34 501.7 154.581 503.66 154.461C505.05 154.371 505.06 152.17 503.65 152.26Z" fill="white"/>
<path d="M484.84 152.001C475.14 141.831 471.61 129.321 471.21 115.421C471.17 114.011 468.97 114.001 469.01 115.421C469.43 129.991 473.16 142.951 483.28 153.551C484.26 154.581 485.81 153.021 484.84 152.001Z" fill="white"/>
<path d="M485.14 152.811C486.57 138.341 478.49 127.071 471.28 115.061C470.55 113.851 468.65 114.951 469.38 116.171C476.32 127.731 484.32 138.831 482.94 152.811C482.8 154.221 485 154.211 485.14 152.811Z" fill="white"/>
<path d="M483.58 216.7C484.06 212.58 489.02 209.12 491.88 206.57C494.46 204.27 498.6 201.11 502.02 200.23C503.39 199.88 502.81 197.76 501.44 198.11C497.16 199.2 492.76 202.88 489.5 205.75C486.26 208.61 481.93 212.11 481.39 216.7C481.22 218.1 483.42 218.09 483.58 216.7Z" fill="white"/>
<path d="M500.26 199.591C500.28 192.101 509.48 185.011 515.79 182.781C520.87 180.981 526.47 180.211 531.81 179.971C537.9 179.711 544.05 179.951 550.15 179.951C550.83 179.951 557.27 179.611 557.52 179.951C558.01 180.621 555.76 182.321 554.78 183.281C548.2 189.661 540.17 194.901 531.41 197.741C522.4 200.661 508.81 202.181 499.66 199.171C498.31 198.731 497.74 200.851 499.08 201.291C509.6 204.751 525.14 202.911 535.24 198.641C540.97 196.211 546.14 193.341 550.98 189.461C554.28 186.821 559.7 183.361 560.99 179.151C561.2 178.461 560.63 177.761 559.93 177.761C545.9 177.751 530.89 176.131 517.23 180.011C509.01 182.351 498.08 190.121 498.05 199.591C498.05 201.011 500.25 201.011 500.26 199.591Z" fill="white"/>
<path d="M499.41 200.27C519.92 199.85 540.99 191.66 558.51 181.55C559.73 180.84 558.63 178.94 557.4 179.65C548.45 184.81 539.09 189.71 529.07 192.42C519.69 194.96 509.13 197.88 499.41 198.07C498 198.1 498 200.29 499.41 200.27Z" fill="white"/>
<path d="M500.75 200.29C506.09 190.69 519 187.46 528.94 185.62C538.9 183.78 549.3 183.59 559.14 181.3C560.52 180.98 559.93 178.86 558.56 179.18C546.3 182.04 533.44 181.77 521.21 185.08C512.92 187.33 503.28 191.23 498.87 199.18C498.16 200.42 500.06 201.53 500.75 200.29Z" fill="white"/>
<path d="M481.62 243.761C481.08 241.821 479.91 240.491 478.78 238.891C477.52 237.111 476.62 235.161 475.24 233.441C472.87 230.491 470.28 228.261 467.01 226.421C465.78 225.731 464.67 227.621 465.9 228.321C468.49 229.781 470.59 231.511 472.61 233.741C474.18 235.471 475.13 237.331 476.37 239.261C477.47 240.981 478.95 242.301 479.51 244.341C479.88 245.711 482 245.131 481.62 243.761Z" fill="white"/>
<path d="M466.59 226.321C456.97 230.151 444.78 224.941 437.6 218.601C431.26 213.001 426 206.101 420.82 199.471C419.91 198.301 416.85 199.371 420.77 198.681C423.47 198.201 426.17 197.941 428.91 197.891C434.39 197.791 440.36 197.321 445.54 199.181C457.56 203.491 467.37 213.161 467.07 226.751C467.04 228.161 469.23 228.161 469.27 226.751C469.54 214.871 462.53 205.201 452.27 199.711C441.82 194.121 429.02 194.761 417.62 196.951C417.14 197.041 416.83 197.551 416.81 198.011C416.77 199.211 417.28 199.051 417.89 200.021C419.14 202.001 421.58 204.021 423.08 206.001C427.06 211.271 431.82 216.431 436.76 220.821C444.25 227.481 457.28 232.391 467.17 228.451C468.47 227.931 467.9 225.801 466.59 226.321Z" fill="white"/>
<path d="M467.61 226.19C461.53 217.49 455.78 209.14 446.81 203.14C438.83 197.79 428.91 196.58 419.49 196.58C418.08 196.58 418.07 198.78 419.49 198.78C428.59 198.78 437.97 199.96 445.7 205.04C454.38 210.74 459.87 218.95 465.71 227.31C466.52 228.45 468.43 227.35 467.61 226.19Z" fill="white"/>
<path d="M418.66 198.901C427.66 203.041 435.76 206.601 443.97 212.301C450.73 216.991 457.68 223.001 465.26 226.261C466.54 226.811 467.67 224.921 466.37 224.361C458.79 221.091 451.85 215.091 445.08 210.391C436.86 204.691 428.74 201.121 419.77 196.991C418.49 196.421 417.37 198.311 418.66 198.901Z" fill="white"/>
<path d="M419.23 199.19C434.68 208.05 446.16 228.13 465.81 228.13C467.22 228.13 467.23 225.93 465.81 225.93C446.91 225.93 435.25 205.85 420.33 197.29C419.11 196.59 418 198.49 419.23 199.19Z" fill="white"/>
<path d="M482.61 193.52C481.36 192.8 480.56 191.62 479.54 190.62C478.49 189.58 477.35 188.64 476.31 187.61C474.33 185.64 472.79 183.29 470.86 181.3C469.87 180.28 468.32 181.84 469.31 182.85C471.43 185.04 473.12 187.6 475.34 189.72C477.26 191.55 479.2 194.09 481.5 195.42C482.73 196.12 483.84 194.22 482.61 193.52Z" fill="white"/>
<path d="M470.38 181.111C464.82 179.311 462.68 175.991 459.6 171.391C457.09 167.661 453.81 163.261 452.28 159.011C451.93 159.471 451.57 159.941 451.22 160.401C452.96 160.191 456.47 163.851 457.47 164.801C459.66 166.881 461.73 169.331 463.28 171.931C465.43 175.531 466.79 180.241 469.74 183.261C470.73 184.281 472.28 182.721 471.29 181.711C469.39 179.761 468.45 176.681 467.17 174.331C465.87 171.931 464.53 169.631 462.83 167.501C460.82 164.981 455.14 157.731 451.22 158.201C450.57 158.281 449.89 158.851 450.16 159.591C452.15 165.101 456.34 170.251 459.51 175.141C462.41 179.631 464.7 181.571 469.8 183.221C471.14 183.671 471.72 181.551 470.38 181.111Z" fill="white"/>
<path d="M471.89 182.311C470.44 175.591 469.64 169.351 464.85 163.951C461.93 160.651 455.12 155.991 450.44 157.291C449.08 157.671 449.66 159.791 451.02 159.411C455.99 158.031 462.87 164.731 465.08 168.071C468.15 172.701 468.63 177.661 469.76 182.901C470.07 184.271 472.19 183.691 471.89 182.311Z" fill="white"/>
<path d="M481.62 271.7C480.58 268.91 479.38 265.78 477.66 263.35C475.9 260.87 472.84 257.62 470 256.36C468.72 255.79 467.6 257.69 468.89 258.26C470.01 258.75 471.56 260.14 472.44 260.9C473.86 262.12 475.34 263.72 476.32 265.32C477.61 267.44 478.64 269.96 479.5 272.29C479.99 273.59 482.12 273.02 481.62 271.7Z" fill="white"/>
<path d="M470.55 257.21C470.58 255.43 470.71 253.68 469.59 252.16C468.52 250.7 466.95 250.55 465.25 250.7C463.29 250.86 463.08 252.29 463.12 253.96C463.16 255.56 463.85 256.78 465.38 257.38C468.85 258.74 470.44 254.28 468.47 251.89C467.51 250.73 466.02 250.54 465.09 251.88C464.17 253.21 464.46 255.17 464.91 256.63C465.34 258.04 467.13 258.97 468.33 257.85C469.39 256.86 469.57 254.8 469.15 253.48C468.7 252.05 466.89 251.42 465.6 252.08C464.21 252.79 463.77 254.53 464.02 255.96C464.27 257.44 465.31 258.73 466.91 258.78C468.46 258.83 469.65 257.62 469.93 256.15C470.19 254.78 469.65 253.13 468.62 252.19C467.6 251.26 465.84 251.12 464.55 251.46C461.03 252.39 461.89 258.07 465.06 258.9C466.67 259.32 468.5 258.66 469.37 257.23C469.77 256.57 469.97 255.69 469.55 254.99C469.02 254.09 467.94 254.04 467.01 254.06C465.6 254.09 465.59 256.29 467.01 256.26C467.28 256.35 467.45 256.26 467.54 256.01C467.46 256.19 467.34 256.34 467.18 256.46C466.96 256.64 466.64 256.77 466.37 256.82C465.65 256.94 464.95 256.64 464.66 255.96C464.45 255.47 464.35 254.35 464.7 253.87C465.03 253.42 465.87 253.47 466.37 253.54C467.1 253.65 467.46 254.04 467.68 254.76C467.85 255.31 467.92 256.33 467.22 256.57C465.46 257.17 466.23 253.16 467.05 254.22C467.27 254.5 466.86 255.96 467.03 256.04C466.77 255.91 466.65 254.1 466.69 253.76C466.7 253.49 466.78 253.26 466.95 253.04C466.59 253.05 466.55 253.15 466.83 253.33C466.88 253.54 467.11 253.73 467.17 253.95C467.38 254.65 467.08 255.63 466.25 255.36C465.37 255.08 465.34 254.43 465.32 253.61C465.31 253.36 465.21 253.08 465.39 252.88C465.52 252.74 466.69 252.82 466.88 252.85C468.75 253.2 468.38 255.84 468.36 257.2C468.33 258.62 470.52 258.62 470.55 257.21Z" fill="white"/>
<path d="M481.621 292.231C482.851 287.761 486.671 283.141 489.581 279.661C492.401 276.281 495.331 273.491 498.861 270.871C499.981 270.041 498.891 268.131 497.751 268.971C493.771 271.921 490.441 275.131 487.271 278.971C484.301 282.571 480.751 287.121 479.511 291.651C479.121 293.011 481.241 293.601 481.621 292.231Z" fill="white"/>
<path d="M497.99 270.351C499.88 244.591 530.84 242.001 550.17 237.391C549.76 236.851 549.34 236.311 548.93 235.781C544.7 245.501 538.16 255.731 528.99 261.331C519.15 267.351 508.37 270.031 496.89 269.521C495.48 269.461 495.48 271.651 496.89 271.721C521.63 272.821 541.08 259.301 550.82 236.891C551.19 236.031 550.58 235.041 549.58 235.281C529.07 240.181 497.77 243.361 495.79 270.361C495.69 271.761 497.89 271.751 497.99 270.351Z" fill="white"/>
<path d="M498.59 269.911C508.04 267.821 516.85 264.751 525.4 260.161C529.96 257.711 534.22 254.721 538.28 251.521C543.53 247.391 546.03 243.031 549.76 237.671C550.57 236.511 548.67 235.411 547.86 236.561C543.6 242.671 540.3 247.381 534.22 251.851C530.35 254.701 526.36 257.261 522.05 259.411C514.28 263.291 506.45 265.921 498 267.791C496.63 268.101 497.21 270.221 498.59 269.911Z" fill="white"/>
<path d="M499.08 269.63C506.89 260.99 516.79 257.76 527.14 253.07C535.58 249.24 542.89 244.21 549.6 237.9C550.63 236.93 549.08 235.38 548.05 236.35C539.52 244.38 530.19 249.4 519.43 253.91C511.03 257.43 503.68 261.29 497.53 268.08C496.58 269.12 498.13 270.68 499.08 269.63Z" fill="white"/>
<path d="M499.89 269.411C505.6 259.031 512.64 251.861 524.03 247.801C532.65 244.731 540.95 241.681 549.37 238.071C550.67 237.511 549.55 235.621 548.26 236.171C542.34 238.711 536.52 241.511 530.39 243.531C525.69 245.081 520.81 246.221 516.42 248.601C507.68 253.351 502.7 259.711 497.99 268.291C497.31 269.541 499.21 270.651 499.89 269.411Z" fill="white"/>
<path d="M469.16 115.98C472.39 121.38 477.99 124.59 481.1 130.13C484.6 136.39 487.07 145.44 483.19 152.04C482.47 153.26 484.37 154.37 485.09 153.15C488.37 147.56 487.57 140.64 485.54 134.73C482.56 126.07 475.51 122.31 471.06 114.87C470.34 113.66 468.44 114.76 469.16 115.98Z" fill="white"/>
<path d="M485.14 152.811C484.41 139.551 473.23 128.231 471.18 115.131C470.96 113.741 468.84 114.331 469.06 115.711C469.87 120.871 472.36 126.451 474.51 131.161C477.5 137.741 482.54 145.411 482.95 152.811C483.02 154.221 485.22 154.221 485.14 152.811Z" fill="white"/>
<path d="M482.37 236.27C483.09 234.74 483.61 233.23 484.79 231.96C486.06 230.61 487.69 229.71 489.25 228.74C491.49 227.35 494.09 226.58 496.08 224.8C497.13 223.85 495.58 222.3 494.53 223.25C492.1 225.43 488.58 226.44 485.85 228.25C484.47 229.17 483.39 230.22 482.34 231.49C481.35 232.69 481.15 233.72 480.47 235.16C479.88 236.44 481.77 237.56 482.37 236.27Z" fill="white"/>
<path d="M496.5 221.27C494.41 221.09 492.39 223.19 493.13 225.24C493.96 227.52 496.62 227.96 498.15 226.05C499.6 224.23 497.32 221.1 495.34 222.78C493.32 224.5 495.83 227.61 497.99 226.03C499.89 224.65 499.1 220.96 496.7 220.66C494.31 220.37 492.46 223.92 493.37 225.91C493.86 226.97 494.94 227.55 495.95 228.05C497.02 228.59 498.14 228.5 499.08 227.73C501.06 226.09 500.88 222.8 499.11 221.05C497.16 219.12 493.82 219.57 492.95 222.28C492.63 223.29 492.56 224.58 493.07 225.54C493.65 226.64 494.99 227.84 496.27 227.59C497.66 227.32 497.07 225.2 495.69 225.47C495.59 225.49 495.49 225.51 495.39 225.53C495.67 225.57 495.95 225.6 496.24 225.64C495.49 225.21 494.88 224.61 494.92 223.72C494.95 223.02 495.18 222.14 496 222.03C497.12 221.89 497.83 222.84 498.13 223.74C498.36 224.43 498.5 225.96 497.47 226.19C497.01 226.29 495.66 225.53 495.41 225.08C495.15 224.61 495.47 224.06 495.72 223.65C495.85 223.4 496.01 223.18 496.2 222.98C496.61 222.9 496.78 223.02 496.74 223.37C497.22 224.21 495.76 225.85 495.29 224.66C494.99 223.91 495.83 223.41 496.52 223.48C497.91 223.6 497.9 221.4 496.5 221.27Z" fill="white"/>
</svg>
