<svg width="139" height="79" viewBox="0 0 139 79" fill="none" xmlns="http://www.w3.org/2000/svg">
<path d="M24.0933 53.2748C24.0933 57.8664 22.349 62.3892 18.0949 66.3544H5.81934L5.95868 65.9375C13.2129 63.3637 17.049 58.5629 17.049 53.0672C17.049 49.4486 15.3752 45.4833 12.0965 41.7273C8.60952 37.7621 6.65543 32.613 6.65543 27.8122C6.65543 20.6469 10.9096 14.036 20.3965 12.6445L19.1408 20.1581C14.9555 21.7589 13.3506 24.5419 13.3506 27.6029C13.3506 30.7342 15.0949 34.2122 17.4654 37.1342C21.4441 42.0037 24.0933 47.6401 24.0933 53.2748Z" fill="#303030"/>
<path d="M39.6475 66.3545V36.7173C39.6475 32.3335 37.9737 28.4385 35.2524 25.5852V66.3545H28.5557V13.9658C33.0901 15.0794 37.2049 17.4438 40.2738 20.7141V13.9658H46.9706V66.3545H39.6475Z" fill="#303030"/>
<path d="M77.5902 66.2858C63.2212 66.2858 51.4326 54.3884 51.4326 40.1953C51.4326 25.7929 63.3606 13.9658 77.5902 13.9658C91.9592 13.9658 103.817 25.7929 103.817 40.1953C103.818 54.3884 92.0297 66.2858 77.5902 66.2858ZM77.5902 21.0624C67.2672 21.0624 58.4786 29.5505 58.4786 40.1953C58.4786 50.6309 67.1278 59.2579 77.5902 59.2579C88.2624 59.2579 96.7724 50.4919 96.7724 40.1953C96.7724 29.7598 88.0542 21.0624 77.5902 21.0624Z" fill="#303030"/>
<path d="M124.811 48.0571C127.322 49.7969 128.996 52.8579 128.996 56.1969C128.996 61.763 124.393 66.3545 118.812 66.3545H108.279V13.9658H116.858C125.857 13.9658 133.18 21.5497 133.18 30.1767C133.181 37.3436 129.902 43.6749 124.811 48.0571ZM116.86 20.9937H114.976V45.6224C121.533 43.5359 126.137 37.2733 126.137 30.1767C126.137 25.2369 121.952 20.9937 116.86 20.9937ZM118.883 51.9537H118.186C117.14 52.302 116.094 52.7189 114.978 52.9282V60.4418H118.884C121.186 60.4418 123.07 58.4943 123.07 56.1985C123.068 53.9012 121.184 51.9537 118.883 51.9537Z" fill="#303030"/>
<path d="M77.0457 58.998C77.0441 55.0456 77.2059 51.0915 77.1851 47.1422C77.1691 44.1818 77.4045 41.2422 77.4574 38.2851C77.5119 35.272 77.7105 32.3068 77.7073 29.2858C77.7073 29.0605 77.3549 29.0589 77.3549 29.2858C77.3597 32.302 77.1547 35.2704 77.105 38.2851C77.0554 41.2422 76.8167 44.1818 76.8327 47.1422C76.8535 51.0915 76.6918 55.0456 76.6934 58.998C76.6934 59.2233 77.0457 59.2233 77.0457 58.998Z" fill="#303030"/>
<path d="M77.7238 33.0248C77.7687 32.8155 77.9529 32.5887 78.0554 32.4018C78.2027 32.1318 78.3693 31.8809 78.5631 31.6445C78.9203 31.2099 79.5193 30.5597 80.0655 30.376C80.2786 30.3041 80.1873 29.9654 79.9726 30.0373C79.3512 30.245 78.7601 30.8728 78.3437 31.3521C78.1098 31.6205 77.9272 31.9145 77.751 32.2244C77.6277 32.4417 77.4371 32.6829 77.3842 32.9306C77.3378 33.1526 77.6774 33.2469 77.7238 33.0248Z" fill="#303030"/>
<path d="M80.6709 29.2709C80.2048 29.3013 79.9181 29.6831 79.8813 30.1256C79.8445 30.5682 80.2385 30.8046 80.6501 30.7918C81.1563 30.7759 81.342 30.3381 81.3613 29.886C81.3789 29.4834 80.948 29.2486 80.5941 29.3828C80.2561 29.5106 79.822 29.8573 79.963 30.279C80.1007 30.6912 80.7062 30.6752 80.9913 30.4548C81.2892 30.2247 81.3308 29.5697 80.8728 29.4946C80.5316 29.4387 80.0527 29.902 80.2769 30.2391C80.3762 30.3877 80.6533 30.4116 80.8087 30.3365C80.9512 30.2662 81.0025 30.0266 80.9528 29.8876C80.8888 29.7039 80.6213 29.6544 80.4996 29.8061C80.3762 29.9579 80.4067 30.1816 80.5652 30.2854C80.7542 30.41 80.9304 30.1065 80.743 29.9819C80.7286 29.9723 80.7142 29.9627 80.7014 29.9531C80.7286 29.9883 80.7558 30.0234 80.7815 30.0585C80.7911 30.0873 80.7718 30.0266 80.7799 30.0186C80.7382 30.0362 80.6966 30.0522 80.6549 30.0697C80.6277 29.9867 80.6133 29.9691 80.6085 30.0186C80.6037 30.041 80.6005 30.0649 80.5989 30.0873C80.6645 29.9867 80.5524 30.0202 80.4899 29.9994C80.5252 30.0266 80.5604 30.0538 80.5957 30.0793C80.5236 29.9819 80.711 29.8732 80.7831 29.8764C80.8808 29.8461 80.9064 29.8956 80.8583 30.0218C80.8535 30.1017 80.8119 30.1608 80.7366 30.2023C80.6165 30.2806 80.2897 30.3062 80.3041 30.0905C80.3234 29.8205 80.9304 29.485 81.0105 29.8604C81.0345 29.9723 80.964 30.2822 80.8663 30.3669C80.743 30.4739 80.5284 30.4468 80.3906 30.3924C80.003 30.2407 80.3586 29.64 80.6725 29.6208C80.8952 29.608 80.8968 29.2566 80.6709 29.2709Z" fill="#303030"/>
<path d="M77.6577 29.2294C76.104 27.6046 75.5386 25.606 75.4745 23.3854C75.4681 23.1601 75.1157 23.1585 75.1222 23.3854C75.1894 25.7131 75.7869 27.7836 77.4078 29.477C77.5648 29.6416 77.813 29.3924 77.6577 29.2294Z" fill="#303030"/>
<path d="M77.7058 29.3579C77.9349 27.0462 76.6407 25.2457 75.4859 23.327C75.3689 23.1337 75.0646 23.3094 75.1816 23.5043C76.2931 25.3511 77.5745 27.1245 77.3535 29.3579C77.331 29.5816 77.6834 29.58 77.7058 29.3579Z" fill="#303030"/>
<path d="M77.4558 39.564C77.5327 38.9058 78.3271 38.3531 78.7852 37.9457C79.1984 37.5782 79.8616 37.0734 80.4093 36.9328C80.6288 36.8769 80.5359 36.5382 80.3164 36.5941C79.6309 36.7682 78.9262 37.3562 78.404 37.8147C77.885 38.2716 77.1915 38.8307 77.105 39.564C77.0778 39.7893 77.4302 39.7861 77.4558 39.564Z" fill="#303030"/>
<path d="M80.1274 36.8316C80.1306 35.635 81.6042 34.5023 82.6149 34.146C83.4285 33.8584 84.3255 33.7354 85.1808 33.6971C86.1563 33.6555 87.1413 33.6939 88.1184 33.6939C88.2273 33.6939 89.2588 33.6396 89.2988 33.6939C89.3773 33.8009 89.0169 34.0725 88.86 34.2259C87.806 35.2451 86.5199 36.0823 85.1168 36.536C83.6736 37.0025 81.4969 37.2453 80.0313 36.7645C79.8151 36.6942 79.7238 37.0329 79.9384 37.1032C81.6234 37.6559 84.1125 37.362 85.7302 36.6798C86.648 36.2916 87.4761 35.8331 88.2513 35.2132C88.7799 34.7914 89.648 34.2387 89.8546 33.5661C89.8883 33.4558 89.797 33.344 89.6849 33.344C87.4376 33.3424 85.0335 33.0836 82.8455 33.7035C81.5289 34.0773 79.7782 35.3186 79.7734 36.8316C79.7734 37.0584 80.1258 37.0584 80.1274 36.8316Z" fill="#303030"/>
<path d="M79.9916 36.9393C83.2768 36.8722 86.6516 35.5638 89.4578 33.9486C89.6532 33.8352 89.477 33.5316 89.28 33.6451C87.8465 34.4694 86.3473 35.2523 84.7423 35.6852C83.2399 36.091 81.5485 36.5575 79.9916 36.5879C79.7658 36.5943 79.7658 36.9441 79.9916 36.9393Z" fill="#303030"/>
<path d="M80.206 36.9442C81.0614 35.4105 83.1292 34.8945 84.7213 34.6005C86.3166 34.3065 87.9823 34.2762 89.5584 33.9103C89.7795 33.8592 89.685 33.5205 89.4655 33.5716C87.5018 34.0286 85.442 33.9854 83.4831 34.5142C82.1553 34.8737 80.6113 35.4968 79.9049 36.7668C79.7912 36.965 80.0955 37.1423 80.206 36.9442Z" fill="#303030"/>
<path d="M77.1427 43.8888C77.0562 43.5788 76.8688 43.3664 76.6878 43.1108C76.486 42.8264 76.3418 42.5148 76.1208 42.2401C75.7412 41.7688 75.3264 41.4125 74.8026 41.1185C74.6056 41.0083 74.4278 41.3103 74.6248 41.4221C75.0397 41.6553 75.376 41.9317 75.6996 42.288C75.951 42.5644 76.1032 42.8615 76.3018 43.1699C76.478 43.4446 76.715 43.6555 76.8047 43.9814C76.864 44.2003 77.2035 44.1077 77.1427 43.8888Z" fill="#303030"/>
<path d="M74.7344 41.1029C73.1936 41.7148 71.2411 40.8825 70.091 39.8696C69.0756 38.9749 68.2331 37.8726 67.4034 36.8134C67.2576 36.6265 66.7675 36.7974 67.3954 36.6872C67.8278 36.6105 68.2603 36.5689 68.6992 36.561C69.5769 36.545 70.5331 36.4699 71.3628 36.7671C73.2881 37.4556 74.8593 39.0005 74.8113 41.1716C74.8065 41.3969 75.1573 41.3969 75.1637 41.1716C75.2069 39.2737 74.0841 37.7288 72.4408 36.8517C70.767 35.9587 68.7168 36.0609 66.8908 36.4108C66.814 36.4252 66.7643 36.5066 66.7611 36.5801C66.7547 36.7718 66.8364 36.7463 66.9341 36.9012C67.1343 37.2176 67.5251 37.5403 67.7654 37.8566C68.4028 38.6986 69.1653 39.5229 69.9565 40.2243C71.1562 41.2883 73.2432 42.0727 74.8273 41.4432C75.0355 41.3586 74.9442 41.0199 74.7344 41.1029Z" fill="#303030"/>
<path d="M74.8979 41.0821C73.9241 39.6922 73.0031 38.3582 71.5664 37.3996C70.2882 36.5449 68.6993 36.3516 67.1905 36.3516C66.9646 36.3516 66.963 36.703 67.1905 36.703C68.648 36.703 70.1505 36.8916 71.3886 37.7031C72.7789 38.6138 73.6582 39.9254 74.5936 41.261C74.7233 41.4431 75.0293 41.2674 74.8979 41.0821Z" fill="#303030"/>
<path d="M67.0574 36.7215C68.499 37.3829 69.7964 37.9516 71.1114 38.8623C72.1941 39.6115 73.3073 40.5717 74.5214 41.0925C74.7264 41.1804 74.9074 40.8784 74.6992 40.789C73.4851 40.2666 72.3735 39.308 71.2892 38.5571C69.9726 37.6465 68.672 37.0761 67.2352 36.4163C67.0302 36.3253 66.8508 36.6272 67.0574 36.7215Z" fill="#303030"/>
<path d="M67.1493 36.7684C69.6239 38.1839 71.4627 41.3919 74.61 41.3919C74.8359 41.3919 74.8375 41.0404 74.61 41.0404C71.5828 41.0404 69.7152 37.8324 67.3255 36.4649C67.1301 36.353 66.9523 36.655 67.1493 36.7684Z" fill="#303030"/>
<path d="M77.3003 35.8609C77.1001 35.7458 76.972 35.5573 76.8086 35.3975C76.6404 35.2314 76.4578 35.0812 76.2912 34.9167C75.9741 34.6019 75.7274 34.2265 75.4183 33.9086C75.2597 33.7456 75.0115 33.9949 75.17 34.1562C75.5096 34.5061 75.7803 34.9151 76.1359 35.2538C76.4434 35.5461 76.7541 35.9519 77.1225 36.1644C77.3195 36.2778 77.4973 35.9743 77.3003 35.8609Z" fill="#303030"/>
<path d="M75.3412 33.8794C74.4506 33.5918 74.1078 33.0614 73.6145 32.3265C73.2125 31.7306 72.6871 31.0277 72.4421 30.3487C72.386 30.4222 72.3283 30.4973 72.2723 30.5708C72.551 30.5372 73.1132 31.122 73.2734 31.2737C73.6241 31.606 73.9557 31.9974 74.2039 32.4128C74.5483 32.988 74.7661 33.7404 75.2387 34.2229C75.3972 34.3859 75.6455 34.1366 75.4869 33.9753C75.1826 33.6637 75.032 33.1717 74.827 32.7962C74.6188 32.4128 74.4042 32.0454 74.1319 31.7051C73.8099 31.3025 72.9002 30.1442 72.2723 30.2193C72.1682 30.2321 72.0593 30.3232 72.1025 30.4414C72.4212 31.3217 73.0924 32.1444 73.6001 32.9256C74.0646 33.643 74.4314 33.9529 75.2483 34.2165C75.4629 34.2884 75.5558 33.9497 75.3412 33.8794Z" fill="#303030"/>
<path d="M75.5832 34.071C75.351 32.9974 75.2229 32.0005 74.4556 31.1378C73.9879 30.6106 72.8972 29.8661 72.1476 30.0738C71.9297 30.1345 72.0226 30.4732 72.2405 30.4124C73.0365 30.192 74.1385 31.2624 74.4925 31.796C74.9842 32.5357 75.0611 33.3281 75.2421 34.1652C75.2917 34.3841 75.6313 34.2914 75.5832 34.071Z" fill="#303030"/>
<path d="M77.1423 48.3523C76.9757 47.9066 76.7835 47.4065 76.508 47.0183C76.2261 46.6221 75.736 46.1029 75.2811 45.9016C75.0761 45.8105 74.8967 46.1141 75.1033 46.2052C75.2827 46.2834 75.531 46.5055 75.6719 46.6269C75.8994 46.8218 76.1364 47.0774 76.2934 47.3331C76.5 47.6717 76.665 48.0743 76.8027 48.4466C76.8812 48.6543 77.2224 48.5632 77.1423 48.3523Z" fill="#303030"/>
<path d="M75.3691 46.0376C75.3739 45.7533 75.3948 45.4737 75.2154 45.2308C75.044 44.9976 74.7925 44.9736 74.5202 44.9976C74.2063 45.0232 74.1727 45.2516 74.1791 45.5184C74.1855 45.774 74.296 45.9689 74.5411 46.0648C75.0969 46.2821 75.3515 45.5695 75.036 45.1877C74.8822 45.0024 74.6436 44.972 74.4946 45.1861C74.3473 45.3986 74.3937 45.7117 74.4658 45.945C74.5347 46.1702 74.8214 46.3188 75.0136 46.1399C75.1833 45.9817 75.2122 45.6526 75.1449 45.4417C75.0728 45.2133 74.7829 45.1126 74.5763 45.2181C74.3537 45.3315 74.2832 45.6095 74.3232 45.8379C74.3633 46.0744 74.5299 46.2805 74.7861 46.2884C75.0344 46.2964 75.225 46.1031 75.2698 45.8683C75.3115 45.6494 75.225 45.3858 75.06 45.2356C74.8966 45.0871 74.6147 45.0647 74.4081 45.119C73.8443 45.2676 73.9821 46.175 74.4898 46.3076C74.7477 46.3747 75.0408 46.2693 75.1801 46.0408C75.2442 45.9354 75.2762 45.7948 75.209 45.683C75.1241 45.5392 74.9511 45.5312 74.8021 45.5344C74.5763 45.5392 74.5747 45.8906 74.8021 45.8859C74.8454 45.9002 74.8726 45.8859 74.887 45.8459C74.8742 45.8747 74.855 45.8986 74.8294 45.9178C74.7941 45.9466 74.7429 45.9673 74.6996 45.9753C74.5843 45.9945 74.4722 45.9466 74.4257 45.8379C74.3921 45.7596 74.3761 45.5807 74.4321 45.504C74.485 45.4321 74.6195 45.4401 74.6996 45.4513C74.8166 45.4689 74.8742 45.5312 74.9095 45.6462C74.9367 45.7341 74.9479 45.897 74.8358 45.9354C74.5539 46.0312 74.6772 45.3906 74.8085 45.5599C74.8438 45.6047 74.7781 45.8379 74.8053 45.8507C74.7637 45.8299 74.7445 45.5408 74.7509 45.4865C74.7525 45.4433 74.7653 45.4066 74.7925 45.3714C74.7349 45.373 74.7285 45.389 74.7733 45.4178C74.7813 45.4513 74.8182 45.4817 74.8278 45.5168C74.8614 45.6286 74.8134 45.7852 74.6804 45.7421C74.5395 45.6973 74.5347 45.5935 74.5315 45.4625C74.5299 45.4226 74.5138 45.3778 74.5427 45.3459C74.5635 45.3235 74.7509 45.3363 74.7813 45.3411C75.0808 45.397 75.0216 45.8188 75.0184 46.036C75.0136 46.2629 75.3643 46.2629 75.3691 46.0376Z" fill="#303030"/>
<path d="M77.1415 51.6322C77.3385 50.9181 77.9504 50.18 78.4165 49.624C78.8682 49.084 79.3375 48.6383 79.9029 48.2197C80.0823 48.0871 79.9077 47.782 79.7251 47.9162C79.0876 48.3875 78.5542 48.9003 78.0465 49.5138C77.5708 50.0889 77.0021 50.8159 76.8035 51.5396C76.7411 51.7568 77.0806 51.8495 77.1415 51.6322Z" fill="#303030"/>
<path d="M79.764 48.137C80.0668 44.0215 85.0257 43.6077 88.1218 42.8712C88.0561 42.785 87.9888 42.6987 87.9232 42.614C87.2456 44.1669 86.1981 45.8013 84.7293 46.6959C83.1533 47.6577 81.4266 48.0858 79.5879 48.0044C79.362 47.9948 79.362 48.3446 79.5879 48.3558C83.5505 48.5316 86.6658 46.3716 88.2259 42.7914C88.2851 42.654 88.1874 42.4958 88.0273 42.5342C84.7422 43.317 79.7288 43.825 79.4117 48.1386C79.3956 48.3622 79.748 48.3606 79.764 48.137Z" fill="#303030"/>
<path d="M79.8603 48.0659C81.3739 47.732 82.7851 47.2416 84.1545 46.5083C84.8849 46.1168 85.5672 45.6392 86.2175 45.1279C87.0584 44.4681 87.4589 43.7716 88.0563 42.9152C88.186 42.7299 87.8817 42.5542 87.752 42.7379C87.0696 43.714 86.5411 44.4665 85.5672 45.1806C84.9474 45.636 84.3083 46.0449 83.6179 46.3884C82.3734 47.0083 81.1193 47.4285 79.7658 47.7272C79.5464 47.7768 79.6393 48.1154 79.8603 48.0659Z" fill="#303030"/>
<path d="M79.9384 48.0222C81.1894 46.6419 82.7751 46.1258 84.4329 45.3765C85.7847 44.7647 86.9556 43.9611 88.0303 42.953C88.1953 42.798 87.947 42.5504 87.7821 42.7054C86.4158 43.9882 84.9214 44.7902 83.1979 45.5107C81.8525 46.0731 80.6752 46.6898 79.6902 47.7746C79.538 47.9407 79.7863 48.1899 79.9384 48.0222Z" fill="#303030"/>
<path d="M80.0677 47.9865C80.9823 46.3281 82.1099 45.1827 83.9343 44.534C85.315 44.0436 86.6444 43.5563 87.993 42.9796C88.2013 42.8901 88.0219 42.5881 87.8152 42.676C86.867 43.0818 85.9348 43.5291 84.953 43.8518C84.2002 44.0995 83.4185 44.2816 82.7154 44.6618C81.3155 45.4207 80.5178 46.4368 79.7634 47.8075C79.6545 48.0072 79.9588 48.1846 80.0677 47.9865Z" fill="#303030"/>
<path d="M75.1467 23.475C75.6641 24.3377 76.5611 24.8506 77.0592 25.7356C77.6198 26.7357 78.0154 28.1816 77.394 29.236C77.2786 29.4309 77.583 29.6082 77.6983 29.4133C78.2236 28.5202 78.0955 27.4147 77.7704 26.4705C77.2931 25.087 76.1638 24.4863 75.4511 23.2977C75.3357 23.1044 75.0314 23.2801 75.1467 23.475Z" fill="#303030"/>
<path d="M77.706 29.3585C77.5891 27.2401 75.7984 25.4316 75.4701 23.3387C75.4348 23.1167 75.0953 23.2109 75.1305 23.4314C75.2602 24.2558 75.6591 25.1472 76.0034 25.8997C76.4823 26.9509 77.2896 28.1763 77.3553 29.3585C77.3665 29.5822 77.7189 29.5838 77.706 29.3585Z" fill="#303030"/>
<path d="M77.2618 42.693C77.3771 42.4485 77.4604 42.2073 77.6494 42.0044C77.8529 41.7887 78.1139 41.6449 78.3638 41.49C78.7226 41.2679 79.139 41.1449 79.4578 40.8605C79.626 40.7087 79.3777 40.4611 79.2095 40.6129C78.8203 40.9612 78.2565 41.1225 77.8192 41.4117C77.5982 41.5587 77.4252 41.7264 77.257 41.9293C77.0985 42.121 77.0664 42.2856 76.9575 42.5156C76.863 42.7201 77.1657 42.8975 77.2618 42.693Z" fill="#303030"/>
<path d="M79.5259 40.2962C79.1911 40.2675 78.8676 40.603 78.9861 40.9305C79.1191 41.2948 79.5451 41.3651 79.7902 41.0599C80.0224 40.7691 79.6572 40.2691 79.3401 40.5375C79.0165 40.8123 79.4186 41.3091 79.7645 41.0567C80.0689 40.8362 79.9423 40.2467 79.5579 40.1988C79.1751 40.1525 78.8788 40.7196 79.0245 41.0375C79.103 41.2069 79.276 41.2996 79.4378 41.3794C79.6092 41.4657 79.7886 41.4513 79.9391 41.3283C80.2563 41.0663 80.2274 40.5407 79.9439 40.2611C79.6316 39.9528 79.0966 40.0246 78.9573 40.4576C78.906 40.619 78.8948 40.8251 78.9765 40.9784C79.0694 41.1542 79.284 41.3459 79.489 41.3059C79.7117 41.2628 79.6172 40.9241 79.3961 40.9672C79.3801 40.9704 79.3641 40.9736 79.3481 40.9768C79.3929 40.9832 79.4378 40.988 79.4842 40.9944C79.3641 40.9257 79.2664 40.8299 79.2728 40.6877C79.2776 40.5758 79.3145 40.4352 79.4458 40.4177C79.6252 40.3953 79.7389 40.5471 79.787 40.6909C79.8238 40.8011 79.8462 41.0455 79.6812 41.0823C79.6076 41.0983 79.3913 40.9768 79.3513 40.9049C79.3097 40.8299 79.3609 40.742 79.4009 40.6765C79.4218 40.6365 79.4474 40.6014 79.4778 40.5694C79.5435 40.5567 79.5707 40.5758 79.5643 40.6317C79.6412 40.7659 79.4074 41.028 79.3321 40.8378C79.284 40.718 79.4186 40.6381 79.5291 40.6493C79.7517 40.6669 79.7501 40.317 79.5259 40.2962Z" fill="#303030"/>
</svg>
