<svg width="19" height="19" viewBox="0 0 19 19" fill="none" xmlns="http://www.w3.org/2000/svg">
<g clip-path="url(#clip0_236_191)">
<path d="M17.6324 0H1.40743C0.652204 0 0.0400391 0.606048 0.0400391 1.35373V17.4166C0.0400391 18.1643 0.652204 18.7703 1.40743 18.7703H17.6324C18.3876 18.7703 18.9998 18.1643 18.9998 17.4166V1.35373C18.9998 0.606048 18.3876 0 17.6324 0ZM13.8483 7.31754C13.8525 7.40991 13.8545 7.50271 13.8545 7.59594C13.8545 10.4424 11.666 13.7249 7.66361 13.725C6.43479 13.725 5.29132 13.3684 4.32838 12.7574C4.49863 12.7773 4.67192 12.7872 4.84739 12.7872C5.86689 12.7872 6.8051 12.4429 7.54991 11.8651C6.59738 11.8476 5.79427 11.2248 5.51712 10.3688C5.64977 10.394 5.78617 10.4078 5.92605 10.4078C6.12466 10.4078 6.31704 10.3813 6.49988 10.3319C5.50425 10.1345 4.75423 9.26343 4.75423 8.22031C4.75423 8.21058 4.75423 8.20184 4.75452 8.19282C5.04773 8.35421 5.38303 8.45131 5.74003 8.46219C5.15578 8.07625 4.77173 7.4165 4.77173 6.66911C4.77173 6.27443 4.8795 5.90467 5.06639 5.58632C6.13941 6.88979 7.74302 7.74702 9.55145 7.83709C9.51413 7.67928 9.49489 7.51488 9.49489 7.3459C9.49489 6.15671 10.4694 5.19194 11.671 5.19194C12.2969 5.19194 12.8622 5.45386 13.2593 5.87259C13.755 5.77579 14.2205 5.59649 14.641 5.34975C14.4783 5.85254 14.1334 6.27443 13.6841 6.54122C14.1243 6.4891 14.5438 6.37353 14.9336 6.20197C14.6425 6.63402 14.2732 7.01352 13.8483 7.31754Z" fill="#3F3B3C"/>
</g>
<defs>
<clipPath id="clip0_236_191">
<rect width="18.9598" height="18.7703" fill="white" transform="translate(0.0400391)"/>
</clipPath>
</defs>
</svg>
